<?xml version="1.0" encoding="utf-8"?>
<svg xmlns="http://www.w3.org/2000/svg" id="Capa_1" style="enable-background:new 0 0 512 512;" version="1.1" viewBox="0 0 512 512" x="0px" y="0px">
<style type="text/css">
	.st0{fill:#1D1D1F;}
	.st1{fill:#DE0000;}
</style>
<path class="st0" d="M1094.2,64.6c-65.2,0-118.3,53.1-118.3,118.3c0,65.2,53.1,118.3,118.3,118.3c65.2,0,118.3-53.1,118.3-118.3&#xD;&#xA;	C1212.5,117.7,1159.4,64.6,1094.2,64.6z M1094.2,287.2c-57.5,0-104.3-46.8-104.3-104.3c0-57.5,46.8-104.3,104.3-104.3&#xD;&#xA;	c57.5,0,104.3,46.8,104.3,104.3C1198.5,240.4,1151.7,287.2,1094.2,287.2z"/>
<path class="st1" d="M1163.2,158.5l-43.4-6.3l-19.4-39.3c-1.2-2.4-3.6-3.9-6.3-3.9c-2.7,0-5.1,1.5-6.3,3.9l-19.4,39.3l-43.4,6.3&#xD;&#xA;	c-2.6,0.4-4.8,2.2-5.6,4.7c-0.8,2.5-0.1,5.3,1.8,7.2l31.4,30.6l-7.4,43.2c-0.4,2.6,0.6,5.3,2.8,6.8c2.2,1.6,5,1.8,7.4,0.5l38.8-20.4&#xD;&#xA;	l38.8,20.4c1,0.5,2.1,0.8,3.2,0.8c1.4,0,2.9-0.4,4.1-1.3c2.2-1.6,3.2-4.2,2.8-6.8l-7.4-43.2l31.4-30.6c1.9-1.9,2.6-4.6,1.8-7.2&#xD;&#xA;	C1168,160.7,1165.9,158.9,1163.2,158.5z M1123.3,193.6c-1.6,1.6-2.4,3.9-2,6.2l5.6,32.9l-29.5-15.5c-1-0.5-2.1-0.8-3.2-0.8&#xD;&#xA;	s-2.2,0.3-3.2,0.8l-29.5,15.5l5.6-32.9c0.4-2.3-0.4-4.6-2-6.2l-23.9-23.3l33-4.8c2.3-0.3,4.2-1.8,5.3-3.8l14.8-29.9l14.8,29.9&#xD;&#xA;	c1,2.1,3,3.5,5.3,3.8l33,4.8L1123.3,193.6z"/>
<path class="st0" d="M1259.2,182.9c0-8-2.4-15.8-6.9-22.4c-3.5-5.1-4.7-11.4-3.5-17.4c1.6-7.8,0.9-15.9-2.2-23.3&#xD;&#xA;	c-3.1-7.4-8.2-13.7-14.9-18c-5.1-3.4-8.7-8.8-9.9-14.8c-1.5-7.9-5.3-15-10.9-20.7c-5.7-5.7-12.8-9.5-20.7-10.9&#xD;&#xA;	c-6-1.1-11.4-4.7-14.8-9.9c-4.4-6.7-10.6-11.9-18-14.9c-7.4-3.1-15.5-3.8-23.3-2.2c-6,1.3-12.4,0-17.4-3.5c-13.2-9-31.5-9-44.8,0&#xD;&#xA;	c-5.1,3.5-11.4,4.7-17.4,3.5c-7.8-1.6-15.9-0.9-23.3,2.2c-7.4,3.1-13.7,8.2-18,14.9c-3.4,5.1-8.8,8.7-14.8,9.9&#xD;&#xA;	c-7.9,1.5-15,5.3-20.7,10.9c-5.7,5.7-9.5,12.8-10.9,20.7c-1.1,6-4.7,11.4-9.9,14.8c-6.7,4.4-11.9,10.6-14.9,18&#xD;&#xA;	c-3.1,7.4-3.8,15.5-2.2,23.3c1.3,6,0,12.4-3.5,17.4c-4.5,6.6-6.9,14.4-6.9,22.4c0,8,2.4,15.8,6.9,22.4c3.5,5.1,4.7,11.4,3.5,17.4&#xD;&#xA;	c-1.6,7.8-0.9,15.9,2.2,23.3c3.1,7.4,8.2,13.7,14.9,18c5.1,3.4,8.7,8.8,9.9,14.8c1.5,7.9,5.3,15,10.9,20.7s12.8,9.5,20.7,10.9&#xD;&#xA;	c3.6,0.7,7,2.3,9.9,4.6v170c0,2.8,1.7,5.4,4.3,6.4c2.6,1.1,5.6,0.5,7.6-1.5l74.2-74.2l74.2,74.2c1.3,1.3,3.1,2,4.9,2&#xD;&#xA;	c0.9,0,1.8-0.2,2.7-0.5c2.6-1.1,4.3-3.6,4.3-6.4v-170c2.9-2.3,6.3-3.9,9.9-4.5c7.9-1.5,15-5.3,20.7-10.9c5.7-5.7,9.5-12.8,10.9-20.7&#xD;&#xA;	c1.1-6,4.7-11.4,9.9-14.8c6.7-4.4,11.9-10.6,14.9-18c3.1-7.4,3.8-15.5,2.2-23.3c-1.3-6,0-12.4,3.5-17.4&#xD;&#xA;	C1256.8,198.7,1259.2,190.9,1259.2,182.9z M1022.1,330.1c2.7,2.1,5.7,3.9,9,5.3c7.4,3.1,15.5,3.8,23.3,2.2c6-1.3,12.4,0,17.4,3.5&#xD;&#xA;	c4.7,3.2,9.9,5.2,15.4,6.2V403l-65.1,65.1V330.1z M1101.2,403v-55.8c5.5-1,10.7-3,15.4-6.2c5.1-3.5,11.4-4.7,17.4-3.5&#xD;&#xA;	c7.8,1.6,15.9,0.9,23.3-2.2c3.3-1.3,6.2-3.2,9-5.3v138.1L1101.2,403z M1240.8,197.4c-5.6,8.2-7.6,18.5-5.6,28.2&#xD;&#xA;	c1.1,5.1,0.6,10.3-1.4,15.1c-2,4.8-5.3,8.9-9.7,11.7c-8.3,5.4-14.1,14.1-16,23.9c-1,5.1-3.4,9.7-7.1,13.4c-3.7,3.7-8.3,6.1-13.4,7.1&#xD;&#xA;	c-9.8,1.8-18.5,7.7-23.9,16c-2.8,4.3-6.9,7.7-11.7,9.7c-4.8,2-10,2.5-15.1,1.4c-9.7-2-20,0-28.2,5.6c-8.6,5.9-20.5,5.9-29,0&#xD;&#xA;	c-6.1-4.2-13.4-6.4-20.7-6.4c-2.5,0-5,0.3-7.5,0.8c-5.1,1.1-10.3,0.6-15.1-1.4c-4.8-2-8.9-5.3-11.7-9.7c-5.4-8.3-14.1-14.1-23.9-16&#xD;&#xA;	c-5.1-1-9.7-3.4-13.4-7.1c-3.7-3.7-6.1-8.3-7.1-13.4c-1.8-9.8-7.7-18.5-16-23.9c-4.3-2.8-7.7-6.9-9.7-11.7c-2-4.8-2.5-10-1.4-15.1&#xD;&#xA;	c2-9.7,0-20-5.6-28.2c-2.9-4.3-4.5-9.3-4.5-14.5c0-5.2,1.5-10.2,4.5-14.5c5.6-8.2,7.6-18.5,5.6-28.2c-1.1-5.1-0.6-10.3,1.4-15.1&#xD;&#xA;	c2-4.8,5.3-8.9,9.7-11.7c8.3-5.4,14.1-14.1,16-23.9c1-5.1,3.4-9.7,7.1-13.4c3.7-3.7,8.3-6.1,13.4-7.1c9.8-1.8,18.5-7.7,23.9-16&#xD;&#xA;	c2.8-4.3,6.9-7.7,11.7-9.7c4.8-2,10-2.5,15.1-1.4c9.7,2,20,0,28.2-5.6c8.6-5.8,20.4-5.9,29,0c8.2,5.6,18.5,7.6,28.2,5.6&#xD;&#xA;	c5.1-1.1,10.3-0.6,15.1,1.4c4.8,2,8.9,5.3,11.7,9.7c5.4,8.3,14.1,14.1,23.9,16c5.1,1,9.7,3.4,13.4,7.1c3.7,3.7,6.1,8.3,7.1,13.4&#xD;&#xA;	c1.8,9.8,7.7,18.5,16,23.9c4.3,2.8,7.7,6.9,9.7,11.7c2,4.8,2.5,10,1.4,15.1c-2,9.7,0,20,5.6,28.2c2.9,4.3,4.5,9.3,4.5,14.5&#xD;&#xA;	C1245.3,188.1,1243.7,193.1,1240.8,197.4z"/>
<path class="st0" d="M486.5,232l-28.4-10.1v-6.7c0-3.8-3.1-6.9-6.9-6.9h-14.3v-4.4C436.9,104.1,355.8,23,256,23&#xD;&#xA;	c-99.8,0-180.9,81.2-180.9,180.9v4.4H60.8c-3.8,0-6.9,3.1-6.9,6.9v6.7L25.5,232c-2.8,1-4.6,3.6-4.6,6.5v118.4c0,2.9,1.8,5.5,4.6,6.5&#xD;&#xA;	l28.4,10.1v6.7c0,3.8,3.1,6.9,6.9,6.9h45.4c14.7,0,26.7-12,26.7-26.7V235c0-12.8-9.1-23.6-21.2-26.1v-5&#xD;&#xA;	c0-79.6,64.7-144.3,144.3-144.3c79.6,0,144.3,64.7,144.3,144.3v5c-12.1,2.5-21.2,13.3-21.2,26.1v125.4c0,14.7,12,26.7,26.7,26.7h5.9&#xD;&#xA;	v41.6c0,18-14.6,32.6-32.6,32.6h-86.7c-3-10.4-12.6-18.1-24-18.1h-24.6c-13.8,0-25,11.2-25,25s11.2,25,25,25h24.6&#xD;&#xA;	c11.4,0,21-7.7,24-18.1h86.7c25.6,0,46.5-20.9,46.5-46.5v-41.6h25.7c3.8,0,6.9-3.1,6.9-6.9v-6.7l28.4-10.1c2.8-1,4.6-3.6,4.6-6.5&#xD;&#xA;	V238.5C491.1,235.6,489.3,232.9,486.5,232z M268.3,479.4h-24.6c-6.2,0-11.2-5-11.2-11.2c0-6.2,5-11.2,11.2-11.2h24.6&#xD;&#xA;	c6.2,0,11.2,5,11.2,11.2C279.5,474.4,274.5,479.4,268.3,479.4z M34.7,352V243.4l19.2-6.8v122.2L34.7,352z M119.1,235v125.4&#xD;&#xA;	c0,7.1-5.8,12.9-12.9,12.9H67.7V222.1h38.5C113.3,222.1,119.1,227.9,119.1,235z M256,45.8c-87.2,0-158.1,70.9-158.1,158.1v4.4h-8.9&#xD;&#xA;	v-4.4c0-92.1,74.9-167.1,167.1-167.1s167.1,74.9,167.1,167.1v4.4h-8.9v-4.4C414.1,116.7,343.2,45.8,256,45.8z M444.3,373.2h-38.5&#xD;&#xA;	c-7.1,0-12.9-5.8-12.9-12.9V235c0-7.1,5.8-12.9,12.9-12.9h38.5V373.2z M477.3,352l-19.2,6.8V236.6l19.2,6.8V352z"/>
<g>
	<path class="st1" d="M161.9,299.8h17c1.4,4.6,3.3,9,5.5,13.3l-12,12c-1.3,1.3-2,3.1-2,4.9c0,1.8,0.7,3.6,2,4.9l24.4,24.4&#xD;&#xA;		c2.7,2.7,7.1,2.7,9.8,0l12-12c4.3,2.2,8.7,4.1,13.3,5.5v17c0,3.8,3.1,6.9,6.9,6.9h34.5c3.8,0,6.9-3.1,6.9-6.9v-17&#xD;&#xA;		c4.6-1.4,9-3.3,13.3-5.5l12,12c2.7,2.7,7.1,2.7,9.8,0l24.4-24.4c2.7-2.7,2.7-7.1,0-9.8l-12-12c2.2-4.3,4.1-8.7,5.5-13.3h17&#xD;&#xA;		c3.8,0,6.9-3.1,6.9-6.9v-34.5c0-3.8-3.1-6.9-6.9-6.9h-17c-1.4-4.6-3.3-9-5.5-13.3l12-12c2.7-2.7,2.7-7.1,0-9.8L315.3,192&#xD;&#xA;		c-2.7-2.7-7.1-2.7-9.8,0l-12,12c-4.3-2.2-8.7-4.1-13.3-5.5v-17c0-3.8-3.1-6.9-6.9-6.9h-34.5c-3.8,0-6.9,3.1-6.9,6.9v17&#xD;&#xA;		c-4.6,1.4-9,3.3-13.3,5.5l-12-12c-2.7-2.7-7.1-2.7-9.8,0l-24.4,24.4c-1.3,1.3-2,3.1-2,4.9c0,1.8,0.7,3.6,2,4.9l12,12&#xD;&#xA;		c-2.2,4.3-4.1,8.7-5.5,13.3h-17c-3.8,0-6.9,3.1-6.9,6.9v34.5C154.9,296.7,158,299.8,161.9,299.8z M168.8,265.4h15.4&#xD;&#xA;		c3.2,0,6-2.2,6.7-5.3c1.6-6.8,4.3-13.3,8-19.4c1.7-2.7,1.3-6.3-1-8.5L187,221.3l14.6-14.6l10.9,10.9c2.3,2.3,5.8,2.7,8.5,1&#xD;&#xA;		c6-3.7,12.5-6.4,19.4-8c3.1-0.7,5.3-3.5,5.3-6.7v-15.4h20.6v15.3c0,3.2,2.2,6,5.3,6.7c6.8,1.6,13.3,4.3,19.4,8&#xD;&#xA;		c2.7,1.7,6.3,1.3,8.5-1l10.9-10.9l14.6,14.6l-10.9,10.9c-2.3,2.3-2.7,5.8-1,8.5c3.7,6,6.4,12.5,8,19.4c0.7,3.1,3.5,5.3,6.7,5.3&#xD;&#xA;		h15.3V286h-15.4c-3.2,0-6,2.2-6.7,5.3c-1.6,6.8-4.3,13.4-8,19.4c-1.7,2.7-1.3,6.3,1,8.5L325,330l-14.6,14.6l-10.9-10.9&#xD;&#xA;		c-2.3-2.3-5.8-2.7-8.5-1c-6,3.7-12.5,6.4-19.4,8c-3.1,0.7-5.3,3.5-5.3,6.7v15.4h-20.6v-15.3c0-3.2-2.2-6-5.3-6.7&#xD;&#xA;		c-6.8-1.6-13.3-4.3-19.4-8c-2.7-1.7-6.3-1.3-8.5,1l-10.9,10.9L187,330l10.9-10.9c2.3-2.3,2.7-5.8,1-8.5c-3.7-6-6.4-12.5-8-19.4&#xD;&#xA;		c-0.7-3.1-3.5-5.3-6.7-5.3h-15.3V265.4z"/>
	<path class="st1" d="M256,321.5c25.3,0,45.9-20.6,45.9-45.9s-20.6-45.9-45.9-45.9c-25.3,0-45.9,20.6-45.9,45.9&#xD;&#xA;		S230.7,321.5,256,321.5z M256,243.6c17.7,0,32,14.4,32,32s-14.4,32-32,32c-17.7,0-32-14.4-32-32S238.3,243.6,256,243.6z"/>
</g>
</svg>