<?xml version="1.0" encoding="utf-8"?>
<svg xmlns="http://www.w3.org/2000/svg" id="Capa_1" style="enable-background:new 0 0 512 512;" version="1.1" viewBox="0 0 512 512" x="0px" y="0px">
<style type="text/css">
	.st0{fill:#1D1D1F;}
	.st1{fill:#DE0000;}
</style>
<path class="st0" d="M254.8,64.6c-65.2,0-118.3,53.1-118.3,118.3c0,65.2,53.1,118.3,118.3,118.3c65.2,0,118.3-53.1,118.3-118.3&#xD;&#xA;	C373.1,117.7,320,64.6,254.8,64.6z M254.8,287.2c-57.5,0-104.3-46.8-104.3-104.3c0-57.5,46.8-104.3,104.3-104.3&#xD;&#xA;	c57.5,0,104.3,46.8,104.3,104.3C359.2,240.4,312.3,287.2,254.8,287.2z"/>
<path class="st1" d="M323.8,158.5l-43.4-6.3l-19.4-39.3c-1.2-2.4-3.6-3.9-6.3-3.9c-2.7,0-5.1,1.5-6.3,3.9l-19.4,39.3l-43.4,6.3&#xD;&#xA;	c-2.6,0.4-4.8,2.2-5.6,4.7c-0.8,2.5-0.1,5.3,1.8,7.2l31.4,30.6l-7.4,43.2c-0.4,2.6,0.6,5.3,2.8,6.8c2.2,1.6,5,1.8,7.4,0.5l38.8-20.4&#xD;&#xA;	l38.8,20.4c1,0.5,2.1,0.8,3.2,0.8c1.4,0,2.9-0.4,4.1-1.3c2.1-1.6,3.2-4.2,2.8-6.8l-7.4-43.2l31.4-30.6c1.9-1.9,2.6-4.6,1.8-7.2&#xD;&#xA;	C328.6,160.7,326.5,158.9,323.8,158.5z M283.9,193.6c-1.6,1.6-2.4,3.9-2,6.2l5.6,32.9l-29.5-15.5c-1-0.5-2.1-0.8-3.2-0.8&#xD;&#xA;	c-1.1,0-2.2,0.3-3.2,0.8L222,232.6l5.6-32.9c0.4-2.3-0.4-4.6-2-6.2l-23.9-23.3l33-4.8c2.3-0.3,4.2-1.8,5.3-3.8l14.8-29.9l14.8,29.9&#xD;&#xA;	c1,2.1,3,3.5,5.3,3.8l33,4.8L283.9,193.6z"/>
<path class="st0" d="M419.8,182.9c0-8-2.4-15.8-6.9-22.4c-3.5-5.1-4.7-11.4-3.5-17.4c1.6-7.8,0.9-15.9-2.2-23.3&#xD;&#xA;	c-3.1-7.4-8.2-13.7-14.9-18c-5.1-3.4-8.7-8.8-9.9-14.8c-1.5-7.9-5.3-15-10.9-20.7c-5.7-5.7-12.8-9.5-20.7-10.9&#xD;&#xA;	c-6-1.1-11.4-4.7-14.8-9.9c-4.4-6.7-10.6-11.9-18-14.9c-7.4-3.1-15.5-3.8-23.3-2.2c-6,1.3-12.4,0-17.4-3.5c-13.2-9-31.5-9-44.8,0&#xD;&#xA;	c-5.1,3.5-11.4,4.7-17.4,3.5c-7.8-1.6-15.9-0.9-23.3,2.2c-7.4,3.1-13.7,8.2-18,14.9c-3.4,5.1-8.8,8.7-14.8,9.9&#xD;&#xA;	c-7.9,1.5-15,5.3-20.7,10.9c-5.7,5.7-9.5,12.8-10.9,20.7c-1.1,6-4.7,11.4-9.9,14.8c-6.7,4.4-11.9,10.6-14.9,18&#xD;&#xA;	c-3.1,7.4-3.8,15.5-2.2,23.3c1.3,6,0,12.4-3.5,17.4c-4.5,6.6-6.9,14.4-6.9,22.4c0,8,2.4,15.8,6.9,22.4c3.5,5.1,4.7,11.4,3.5,17.4&#xD;&#xA;	c-1.6,7.8-0.9,15.9,2.2,23.3c3.1,7.4,8.2,13.7,14.9,18c5.1,3.4,8.7,8.8,9.9,14.8c1.5,7.9,5.3,15,10.9,20.7&#xD;&#xA;	c5.7,5.7,12.8,9.5,20.7,10.9c3.6,0.7,7,2.3,9.9,4.6v170c0,2.8,1.7,5.4,4.3,6.4c2.6,1.1,5.6,0.5,7.6-1.5l74.2-74.2L329,490&#xD;&#xA;	c1.3,1.3,3.1,2,4.9,2c0.9,0,1.8-0.2,2.7-0.5c2.6-1.1,4.3-3.6,4.3-6.4v-170c2.9-2.3,6.3-3.9,9.9-4.5c7.9-1.5,15-5.3,20.7-10.9&#xD;&#xA;	c5.7-5.7,9.5-12.8,10.9-20.7c1.1-6,4.7-11.4,9.9-14.8c6.7-4.4,11.9-10.6,14.9-18c3.1-7.4,3.8-15.5,2.2-23.3c-1.3-6,0-12.4,3.5-17.4&#xD;&#xA;	C417.4,198.7,419.8,190.9,419.8,182.9z M182.7,330.1c2.7,2.1,5.7,3.9,9,5.3c7.4,3.1,15.5,3.8,23.3,2.2c6-1.3,12.4,0,17.4,3.5&#xD;&#xA;	c4.7,3.2,9.9,5.2,15.4,6.2V403l-65.1,65.1V330.1z M261.8,403v-55.8c5.5-1,10.7-3,15.4-6.2c5.1-3.5,11.4-4.7,17.4-3.5&#xD;&#xA;	c7.8,1.6,15.9,0.9,23.3-2.2c3.3-1.3,6.2-3.2,9-5.3v138.1L261.8,403z M401.4,197.4c-5.6,8.2-7.6,18.5-5.6,28.2&#xD;&#xA;	c1.1,5.1,0.6,10.3-1.4,15.1c-2,4.8-5.3,8.9-9.7,11.7c-8.3,5.4-14.1,14.1-16,23.9c-1,5.1-3.4,9.7-7.1,13.4c-3.7,3.7-8.3,6.1-13.4,7.1&#xD;&#xA;	c-9.8,1.8-18.5,7.7-23.9,16c-2.8,4.3-6.9,7.7-11.7,9.7c-4.8,2-10,2.5-15.1,1.4c-9.7-2-20,0-28.2,5.6c-8.6,5.9-20.5,5.9-29,0&#xD;&#xA;	c-6.1-4.2-13.4-6.4-20.7-6.4c-2.5,0-5,0.3-7.5,0.8c-5.1,1.1-10.3,0.6-15.1-1.4c-4.8-2-8.9-5.3-11.7-9.7c-5.4-8.3-14.1-14.1-23.9-16&#xD;&#xA;	c-5.1-1-9.7-3.4-13.4-7.1c-3.7-3.7-6.1-8.3-7.1-13.4c-1.8-9.8-7.7-18.5-16-23.9c-4.3-2.8-7.7-6.9-9.7-11.7c-2-4.8-2.5-10-1.4-15.1&#xD;&#xA;	c2-9.7,0-20-5.6-28.2c-2.9-4.3-4.5-9.3-4.5-14.5c0-5.2,1.5-10.2,4.5-14.5c5.6-8.2,7.6-18.5,5.6-28.2c-1.1-5.1-0.6-10.3,1.4-15.1&#xD;&#xA;	c2-4.8,5.3-8.9,9.7-11.7c8.3-5.4,14.1-14.1,16-23.9c1-5.1,3.4-9.7,7.1-13.4c3.7-3.7,8.3-6.1,13.4-7.1c9.8-1.8,18.5-7.7,23.9-16&#xD;&#xA;	c2.8-4.3,6.9-7.7,11.7-9.7c4.8-2,10-2.5,15.1-1.4c9.7,2,20,0,28.2-5.6c8.6-5.8,20.4-5.9,29,0c8.2,5.6,18.5,7.6,28.2,5.6&#xD;&#xA;	c5.1-1.1,10.3-0.6,15.1,1.4c4.8,2,8.9,5.3,11.7,9.7c5.4,8.3,14.1,14.1,23.9,16c5.1,1,9.7,3.4,13.4,7.1c3.7,3.7,6.1,8.3,7.1,13.4&#xD;&#xA;	c1.8,9.8,7.7,18.5,16,23.9c4.3,2.8,7.7,6.9,9.7,11.7c2,4.8,2.5,10,1.4,15.1c-2,9.7,0,20,5.6,28.2c2.9,4.3,4.5,9.3,4.5,14.5&#xD;&#xA;	C405.9,188.1,404.3,193.1,401.4,197.4z"/>
</svg>