<svg xmlns="http://www.w3.org/2000/svg" width="25" height="25" viewBox="0 0 25 25" fill="none">
  <path d="M22.2719 2.55273H3.70044C3.41472 2.55273 3.22424 2.74321 3.22424 3.02892V4.93369C2.93852 4.93369 2.74805 5.12416 2.74805 5.40988V7.79084C2.74805 8.07655 2.93852 8.26703 3.22424 8.26703V9.21941C2.93852 9.21941 2.74805 9.40989 2.74805 9.6956V11.6004C2.74805 11.8861 2.93852 12.0766 3.22424 12.0766V22.0766C3.22424 22.3623 3.41472 22.5528 3.70044 22.5528H22.2719C22.5576 22.5528 22.7481 22.3623 22.7481 22.0766V3.02893C22.7481 2.74321 22.5576 2.55273 22.2719 2.55273ZM21.7957 21.6004H4.17662V11.6004C4.17662 11.3146 3.98615 11.1242 3.70044 11.1242V10.1718C3.98615 10.1718 4.17662 9.98132 4.17662 9.6956V7.79084C4.17662 7.50513 3.98615 7.31465 3.70044 7.31465V5.88608C3.98615 5.88608 4.17662 5.6956 4.17662 5.40988V3.50512H21.7957V21.6004Z" fill="#0D0D0D"/>
  <path d="M6.55736 11.6004C6.55736 11.8861 6.74783 12.0766 7.03355 12.0766H7.98593V13.0289H8.93832V12.0766H9.8907V13.0289H10.8431V12.0766H11.7955C12.0812 12.0766 12.2717 11.8861 12.2717 11.6004V10.648H13.224V9.6956H12.2717V8.74322H13.224V7.79084H12.2717V6.83846C12.2717 6.55274 12.0812 6.36227 11.7955 6.36227H10.8431V5.40988H9.8907V6.36227H8.93832V5.40988H7.98593V6.36227H7.03355C6.74783 6.36227 6.55736 6.55274 6.55736 6.83846V7.79084H5.60498V8.74322H6.55736V9.6956H5.60498V10.648H6.55736V11.6004ZM7.50975 7.31465H11.3193V11.1242H7.50975V7.31465Z" fill="#0D0D0D"/>
  <path d="M18.8433 11.0288H19.6052V11.7907H18.8433V11.0288Z" fill="#0D0D0D"/>
  <path d="M18.8433 18.5527H19.6052V19.3147H18.8433V18.5527Z" fill="#0D0D0D"/>
  <path d="M18.8433 13.3147H19.6052V17.7908H18.8433V13.3147Z" fill="#0D0D0D"/>
  <path d="M17.3193 11.0288H18.0812V11.7907H17.3193V11.0288Z" fill="#0D0D0D"/>
  <path d="M17.3193 18.5527H18.0812V19.3147H17.3193V18.5527Z" fill="#0D0D0D"/>
  <path d="M17.3193 13.3147H18.0812V17.7908H17.3193V13.3147Z" fill="#0D0D0D"/>
  <path d="M15.129 10.1718H19.4147C19.7005 10.1718 19.8909 9.98133 19.8909 9.69561V6.83846C19.8909 6.55275 19.7005 6.36227 19.4147 6.36227H15.129C14.8433 6.36227 14.6528 6.55275 14.6528 6.83846V9.69561C14.6528 9.98132 14.9385 10.1718 15.129 10.1718ZM15.6052 7.31465H18.9385V9.21942H15.6052V7.31465Z" fill="#0D0D0D"/>
  <path d="M5.98584 14.8385H15.7954V15.6004H5.98584V14.8385Z" fill="#0D0D0D"/>
  <path d="M5.98584 17.0288H15.7954V17.7907H5.98584V17.0288Z" fill="#0D0D0D"/>
  <path d="M5.98584 18.5527H15.7954V19.3147H5.98584V18.5527Z" fill="#0D0D0D"/>
</svg>