<svg xmlns="http://www.w3.org/2000/svg" width="25" height="25" viewBox="0 0 25 25" fill="none">
  <path d="M12.748 23.5527C6.72424 23.5527 1.83535 18.6638 1.74805 12.5527C1.74805 6.52893 6.63694 1.64004 12.748 1.55273C18.7719 1.55273 23.6607 6.44162 23.748 12.5527C23.748 18.6638 18.7719 23.5527 12.748 23.5527ZM12.748 2.68766C7.33535 2.68766 2.88297 7.14004 2.88297 12.5527C2.88297 18.0527 7.33535 22.4178 12.748 22.4178C18.248 22.4178 22.6131 17.9654 22.6131 12.5527C22.6131 7.14004 18.248 2.68766 12.748 2.68766Z" fill="#0D0D0D"/>
  <path d="M13.5474 12.4236C13.5474 15.4791 11.714 17.0506 9.4442 17.0506C7.08706 17.0506 5.42833 15.2172 5.42833 12.5982C5.42833 9.80453 7.17436 7.9712 9.5315 7.9712C11.9759 7.9712 13.5474 9.80453 13.5474 12.4236ZM6.73785 12.5982C6.73785 14.5188 7.78547 16.1775 9.5315 16.1775C11.3648 16.1775 12.3252 14.5188 12.3252 12.5109C12.3252 10.7649 11.3648 8.93152 9.5315 8.93152C7.69817 8.93152 6.73785 10.5902 6.73785 12.5982Z" fill="#0D0D0D"/>
  <path d="M14.8571 15.5664C15.4682 15.9157 16.1666 16.1776 16.865 16.1776C17.9999 16.1776 18.6984 15.5664 18.6984 14.6934C18.6984 13.9077 18.2618 13.3839 17.0396 12.9474C15.5555 12.4236 14.6825 11.7252 14.6825 10.4157C14.6825 9.01883 15.8174 7.97121 17.5634 7.97121C18.2618 7.97121 18.873 8.05851 19.4841 8.40772L19.1349 9.36803C18.7857 9.01883 18.1745 8.93153 17.5634 8.93153C16.3412 8.93153 15.9047 9.62994 15.9047 10.241C15.9047 11.0268 16.4285 11.4633 17.6507 11.9871C19.1349 12.5982 19.9206 13.2966 19.9206 14.6061C19.9206 16.003 18.873 17.1379 16.865 17.1379C16.0793 17.1379 15.2936 16.9633 14.5952 16.6141L14.8571 15.5664Z" fill="#0D0D0D"/>
</svg>