<svg xmlns="http://www.w3.org/2000/svg" width="25" height="25" viewBox="0 0 25 25" fill="none">
  <path d="M8.44622 8.48931C6.26849 8.48931 4.50956 10.2482 4.50956 12.426C4.50956 14.6037 6.26849 16.3627 8.44622 16.3627C10.6239 16.3627 12.3829 14.6037 12.3829 12.426C12.3829 10.2482 10.5402 8.48931 8.44622 8.48931ZM11.0427 14.1849C10.6239 14.1849 10.3727 14.0174 10.0376 13.8499L9.53508 14.6037C9.78635 14.7712 10.0376 14.855 10.2889 14.9387C9.78636 15.3575 9.11628 15.525 8.44622 15.525C8.11118 15.525 7.94367 15.525 7.69238 15.4413C7.60863 15.1062 7.60863 14.7712 7.69238 14.4362L6.8548 14.1849C6.77104 14.4362 6.77104 14.6875 6.77104 15.0225C6.01721 14.52 5.4309 13.5985 5.4309 12.5935C5.76594 12.426 6.01722 12.2584 6.43601 12.2584L6.35225 11.4209C6.01722 11.4209 5.8497 11.5046 5.59843 11.5884C5.8497 10.667 6.51977 9.99698 7.44111 9.57818C7.69239 9.82945 7.94367 10.0808 8.02743 10.4158L8.78126 10.0808C8.6975 9.8295 8.52998 9.57818 8.36246 9.4107H8.44622C9.36757 9.4107 10.2052 9.8295 10.8752 10.5833C10.7077 10.9183 10.5402 11.1696 10.2889 11.4209L10.7915 12.0909C11.0427 11.9234 11.2103 11.6721 11.294 11.5046C11.4615 11.8397 11.4615 12.1747 11.4615 12.5098C11.5453 13.096 11.3778 13.6823 11.0427 14.1849Z" fill="#0D0D0D"/>
  <path d="M8.44626 10.7508C7.44115 10.7508 6.68733 11.5046 6.68733 12.5098C6.68733 13.5149 7.44115 14.2687 8.44626 14.2687C9.45136 14.2687 10.2052 13.5149 10.2052 12.5098C10.2052 11.5046 9.45136 10.7508 8.44626 10.7508ZM8.44626 13.3474C7.94371 13.3474 7.60867 12.9286 7.60867 12.5098C7.60867 12.091 8.02746 11.6722 8.44626 11.6722C8.94881 11.6722 9.28384 12.091 9.28384 12.5098C9.3676 13.0123 8.94881 13.3474 8.44626 13.3474Z" fill="#0D0D0D"/>
  <path d="M22.5176 4.55273C21.8476 4.55273 21.1775 5.13905 21.1775 5.89287V6.73046H4.25825L2.24805 8.74066V18.2054H5.34712V19.9643H8.86498V18.2054H10.2051V19.9643H19.0835V18.2054H21.2613V20.8857H22.0989V5.89287C22.0989 5.6416 22.3501 5.39032 22.6014 5.39032H23.439V4.55273H22.5176ZM8.0274 19.1267H6.26847V18.2891H8.0274V19.1267ZM11.0427 18.2054H12.8016V19.043H11.0427V18.2054ZM15.4819 18.2054V19.043H13.723V18.2054H15.4819ZM18.0784 19.1267H16.3195V18.2891H18.0784V19.1267ZM3.16939 17.3678V9.15948L4.67705 7.65184H21.2613V17.3678L3.16939 17.3678Z" fill="#0D0D0D"/>
  <path d="M14.2255 9.49446H18.8322V10.0808H14.2255V9.49446Z" fill="#0D0D0D"/>
  <path d="M14.2255 11.421H18.8322V12.0073H14.2255V11.421Z" fill="#0D0D0D"/>
  <path d="M14.2255 14.1012H16.152V15.4414H14.2255V14.1012Z" fill="#0D0D0D"/>
  <path d="M16.822 14.1012H18.7484V15.4414H16.822V14.1012Z" fill="#0D0D0D"/>
</svg>