<svg xmlns="http://www.w3.org/2000/svg" width="25" height="25" viewBox="0 0 25 25" fill="none">
  <path d="M18.6323 2.55273H6.48358C5.49184 2.55273 4.74805 3.29653 4.74805 4.28828V20.8172C4.74805 21.8089 5.49185 22.5527 6.48358 22.5527H18.6323C19.6241 22.5527 20.3679 21.8089 20.3679 20.8172V4.28828C20.3679 3.29654 19.6241 2.55273 18.6323 2.55273ZM6.48358 3.37918H18.6323C19.1282 3.37918 19.5414 3.7924 19.5414 4.28828V19.0816H5.65713V4.28828C5.65713 3.7924 5.98771 3.37918 6.48358 3.37918ZM18.6323 21.6436H6.48358C5.98771 21.6436 5.57449 21.2304 5.57449 20.7345V19.8254H19.4588V20.7345C19.5414 21.313 19.1282 21.6436 18.6323 21.6436Z" fill="#0D0D0D"/>
  <path d="M12.5994 16.8502C13.2606 16.8502 13.9218 16.7676 14.5829 16.5197C14.8308 16.9329 15.0788 17.2635 15.3267 17.594C15.6573 17.9246 16.1532 18.0899 16.5664 18.0899C17.0622 18.0899 17.4755 17.9246 17.806 17.594C18.1366 17.2635 18.3019 16.7676 18.3019 16.3544C18.3019 15.8585 18.1366 15.4453 17.806 15.1147C16.9796 14.4536 15.9879 13.875 15.0788 13.3792C14.6656 13.0486 14.0044 13.0486 13.5912 13.4618C13.178 13.875 13.178 14.5362 13.5085 14.9494C13.5912 15.1147 13.7565 15.4453 14.0044 15.8585C13.5085 16.0238 13.0127 16.1065 12.5168 16.1065C9.87217 16.1065 7.72342 13.9577 7.72342 11.3131C7.72342 8.66846 9.87217 6.51968 12.5168 6.51968C15.1614 6.51968 17.3102 8.66846 17.3102 11.3131C17.3102 12.0569 17.1449 12.718 16.8143 13.3792L17.5581 13.7924C17.8887 13.0486 18.1366 12.2222 18.1366 11.3131C18.1366 8.17258 15.5746 5.69324 12.5168 5.69324C9.37631 5.69324 6.89697 8.25523 6.89697 11.3131C6.89697 14.3709 9.45895 16.8502 12.5994 16.8502ZM14.2523 13.9577L14.335 13.875C14.4176 13.875 14.5829 13.9577 14.6656 14.0403C15.5746 14.5362 16.4011 15.032 17.2275 15.6932C17.3928 15.8585 17.4755 16.1064 17.4755 16.3544C17.4755 16.6023 17.3928 16.8502 17.2275 17.0155C16.897 17.3461 16.3184 17.3461 15.9052 17.0155C15.3267 16.1891 14.7482 15.3626 14.2523 14.4535C14.1697 14.123 14.1697 14.0403 14.2523 13.9577Z" fill="#0D0D0D"/>
  <path d="M10.8638 11.2304C10.8638 12.2221 11.6076 12.966 12.5993 12.966C13.591 12.966 14.3348 12.2222 14.3348 11.2304C14.3348 10.2387 13.591 9.49487 12.5993 9.49487C11.6076 9.49489 10.8638 10.2387 10.8638 11.2304ZM13.4257 11.2304C13.4257 11.7263 13.0125 12.1395 12.5167 12.1395C12.0208 12.1395 11.6076 11.7263 11.6076 11.2304C11.6076 10.7345 12.0208 10.3213 12.5167 10.3213C13.0952 10.3213 13.4257 10.7346 13.4257 11.2304Z" fill="#0D0D0D"/>
  <path d="M6.81445 20.4039H8.21941V21.1477H6.81445V20.4039Z" fill="#0D0D0D"/>
  <path d="M8.96338 20.4039H10.3683V21.1477H8.96338V20.4039Z" fill="#0D0D0D"/>
</svg>