<svg xmlns="http://www.w3.org/2000/svg" width="25" height="25" viewBox="0 0 25 25" fill="none">
  <path d="M1.74805 13.19L2.19031 13.6323C2.27874 13.7207 2.3672 13.8976 2.3672 13.9861C2.3672 14.163 2.27874 14.2514 2.19031 14.3399L1.74805 14.7821V17.2587H2.72101V19.5584H18.9958V17.2587H19.9688V14.7821L19.5265 14.3399C19.3496 14.163 19.3496 13.8976 19.5265 13.7207L19.9688 13.2785V10.8019H1.92496L1.74805 13.19ZM2.63255 15.0475L2.80945 14.8706C3.0748 14.6052 3.25171 14.2514 3.25171 13.8977C3.25171 13.4554 3.0748 13.19 2.80945 12.9247L2.63255 12.7478V11.5095H18.9074V12.7478L18.7305 12.9247C18.1998 13.4554 18.1998 14.3399 18.7305 14.8706L18.9074 15.0475V16.2858H17.9344V18.5855H16.9615V17.6125H15.9885V18.5855H14.6618V17.6125H13.6888V18.5855H12.362V17.6125H11.3891V18.5855H10.0623V17.6125H9.08937V18.5855H7.76262V17.6125H6.78966V18.5855H5.46291V17.6125H4.48996V18.5855H3.517V16.2858H2.54404L2.63255 15.0475Z" fill="#0D0D0D"/>
  <path d="M7.76288 12.4825H4.57866V16.1974H7.76288V12.4825ZM6.78992 15.3129H5.46316V13.4555H6.78992V15.3129Z" fill="#0D0D0D"/>
  <path d="M12.4505 12.4825H9.26631V16.1974H12.4505V12.4825ZM11.4776 15.3129H10.1508V13.4555H11.4776V15.3129Z" fill="#0D0D0D"/>
  <path d="M17.0497 12.4825H13.8655V16.1974H17.0497V12.4825ZM16.1652 15.3129H14.8385V13.4555H16.1652V15.3129Z" fill="#0D0D0D"/>
  <path d="M24.0372 7.52934V5.05273H5.99342V7.52934L6.43566 7.97159C6.61257 8.14849 6.61257 8.41383 6.43566 8.59075L5.99342 9.03299V9.65214H6.96636V9.38679L7.14327 9.20989C7.67396 8.67918 7.67396 7.79468 7.14327 7.264L6.96636 7.08707V5.93724H23.2412V7.17553L23.0643 7.35243C22.5336 7.88314 22.5336 8.76764 23.0643 9.29833L23.2412 9.47521V10.7135H22.2682V12.571H20.9415V13.5439H23.2412V11.6865H24.2141V9.20988L23.7719 8.76763C23.595 8.59072 23.595 8.32538 23.7719 8.14847L24.0372 7.52934Z" fill="#0D0D0D"/>
  <path d="M12.0082 9.74072V6.91032H8.82403V9.74072H9.79699V7.88327H11.1237V9.74072H12.0082Z" fill="#0D0D0D"/>
  <path d="M16.6074 9.74072V6.91032H13.4232V9.74072H14.3962V7.88327H15.7229V9.74072H16.6074Z" fill="#0D0D0D"/>
  <path d="M21.2072 9.74072V6.91032H18.023V9.74072H18.9959V7.88327H20.3227V9.74072H21.2072Z" fill="#0D0D0D"/>
</svg>