<svg xmlns="http://www.w3.org/2000/svg" width="25" height="25" viewBox="0 0 25 25" fill="none">
  <path d="M23.6511 6.61469V5.54389H21.6159V3.49964H19.5807V1.55273H18.5146V3.59699H17.4485V1.55273H16.3824V3.59699H15.3163V1.55273H14.2503V3.59699H13.1842V1.55273H12.1181V3.59699H11.052V1.55273H9.98593V3.59699H8.91986V1.55273H7.85378V3.59699H6.78769V1.55273H5.72161V3.59699H3.68637V5.54389H1.74805V6.61469H3.78329V7.68546H1.74805V8.75627H3.78329V9.82707H1.74805V10.8979H3.78329V11.9687H1.74805V13.0394H3.78329V14.1102H1.74805V15.181H3.78329V16.2519H1.74805V17.3227H3.78329V18.3934H1.74805V19.4642H3.78329V21.5085H5.81853V23.5527H6.88461V21.5085H7.95069V23.5527H9.01677V21.5085H10.0828V23.5527H11.1489V21.5085H12.215V23.5527H13.2811V21.5085H14.3472V23.5527H15.4132V21.5085H16.4793V23.5527H17.5454V21.5085H18.6115V23.5527H19.6776V21.5085H21.7128V19.1722H23.748V18.1014H21.7128V16.6412H23.748V15.6678H21.7128V14.597H23.748V13.5262H21.7128V12.4554H23.748V11.3846H21.7128V10.3138H23.748V9.24299H21.7128V8.17219H23.748V7.29609H21.7128L21.6159 6.61469H23.6511ZM20.6467 19.7563H5.52778V4.66779H20.5498L20.6467 19.7563Z" fill="#0D0D0D"/>
  <path d="M16.6732 8.65874H9.69518V15.6676H16.6732V8.65874ZM15.6071 14.6941H10.5674V9.63219H15.6071V14.6941Z" fill="#0D0D0D"/>
</svg>