<?xml version="1.0" encoding="utf-8"?>
<svg xmlns="http://www.w3.org/2000/svg" id="_1" style="enable-background:new 0 0 95.5 60.8;" version="1.1" viewBox="0 0 95.5 60.8" x="0px" y="0px">
<g id="Group_851" transform="translate(0 -149.333)">
	<path d="M26.1,198.2h-7.6c-1,0-1.9-0.8-1.9-1.9c0-1,0.8-1.9,1.9-1.9c0,0,0,0,0,0h7.6c1,0,1.9,0.8,1.9,1.9&#xD;&#xA;		C28,197.3,27.1,198.2,26.1,198.2z" id="Path_406"/>
	<path d="M87.6,198.2h-4.7c-1,0-1.9-0.8-1.9-1.9s0.8-1.9,1.9-1.9c0,0,0,0,0,0H86l2.6-13.6&#xD;&#xA;		c-0.2-7.2-6.1-12.9-13.3-12.9H62.9l-6,26.5h10.9c1,0,1.9,0.8,1.9,1.9s-0.8,1.9-1.9,1.9c0,0,0,0,0,0H54.5c-1,0-1.9-0.8-1.9-1.9&#xD;&#xA;		c0-0.1,0-0.3,0-0.4l6.9-30.3c0.2-0.9,1-1.5,1.8-1.5h13.9c9.4,0,17,7.6,17,17l-2.9,15.5C89.3,197.5,88.5,198.2,87.6,198.2z" id="Path_407"/>
	<path d="M75.3,205.8c-5.2,0-9.5-4.2-9.5-9.5s4.2-9.5,9.5-9.5s9.5,4.2,9.5,9.5l0,0C84.7,201.5,80.5,205.8,75.3,205.8z&#xD;&#xA;		 M75.3,190.6c-3.1,0-5.7,2.5-5.7,5.7s2.5,5.7,5.7,5.7s5.7-2.5,5.7-5.7C81,193.2,78.4,190.6,75.3,190.6z" id="Path_408"/>
	<path d="M33.7,205.8c-5.2,0-9.5-4.2-9.5-9.5c0-5.2,4.2-9.5,9.5-9.5c5.2,0,9.5,4.2,9.5,9.5l0,0&#xD;&#xA;		C43.1,201.5,38.9,205.8,33.7,205.8z M33.7,190.6c-3.1,0-5.7,2.5-5.7,5.7s2.5,5.7,5.7,5.7c3.1,0,5.7-2.5,5.7-5.7&#xD;&#xA;		C39.3,193.2,36.8,190.6,33.7,190.6z" id="Path_409"/>
	<path d="M26.1,164.1H10.9c-1,0-1.9-0.8-1.9-1.9c0-1,0.8-1.9,1.9-1.9h15.1c1,0,1.9,0.8,1.9,1.9&#xD;&#xA;		C28,163.3,27.1,164.1,26.1,164.1z" id="Path_410"/>
	<path d="M26.1,175.5H7.2c-1,0-1.9-0.8-1.9-1.9c0-1,0.8-1.9,1.9-1.9c0,0,0,0,0,0h18.9c1,0,1.9,0.8,1.9,1.9&#xD;&#xA;		C28,174.6,27.1,175.5,26.1,175.5z" id="Path_411"/>
	<path d="M26.1,186.8H3.4c-1,0-1.9-0.8-1.9-1.9c0-1,0.8-1.9,1.9-1.9c0,0,0,0,0,0h22.7c1,0,1.9,0.8,1.9,1.9&#xD;&#xA;		C28,186,27.1,186.8,26.1,186.8z" id="Path_412"/>
	<path d="M54.5,198.2H41.2c-1,0-1.9-0.8-1.9-1.9c0-1,0.8-1.9,1.9-1.9c0,0,0,0,0,0H53l8.6-37.8h-43&#xD;&#xA;		c-1,0-1.9-0.8-1.9-1.9s0.8-1.9,1.9-1.9h45.4c1,0,1.9,0.8,1.9,1.9c0,0.1,0,0.3,0,0.4l-9.5,41.6C56.1,197.6,55.4,198.2,54.5,198.2z" id="Path_413"/>
</g>
</svg>