<?xml version="1.0" encoding="utf-8"?>
<svg xmlns="http://www.w3.org/2000/svg" id="_1" style="enable-background:new 0 0 79.6 73.5;" version="1.1" viewBox="0 0 79.6 73.5" x="0px" y="0px">
<g id="Group_850" transform="translate(-1416.547 -566.79)">
	<g id="Group_848" transform="translate(1416.552 566.799)">
		<path d="M5,8.9L9.6,17c0.2,0.3,0.4,0.5,0.7,0.5l4.3,1.1l14.7,14.7l1.6-1.6l-15-15c-0.1-0.1-0.3-0.3-0.5-0.3l-4.1-1&#xD;&#xA;			L7.4,8.5l3.4-3.4l6.9,3.9l1,4.1c0,0.2,0.2,0.4,0.3,0.5l15,15l1.6-1.6L20.9,12.4l-1.1-4.3c-0.1-0.3-0.3-0.6-0.5-0.7l-8.1-4.6&#xD;&#xA;			c-0.4-0.3-1-0.2-1.4,0.2L5.2,7.5C4.8,7.9,4.7,8.5,5,8.9L5,8.9z" id="Path_401"/>
	</g>
	<path d="M1469.4,592.1l-25.3,25.3l-1.6-1.6l25.3-25.3L1469.4,592.1z" id="Path_402"/>
	<g id="Group_849" transform="translate(1416.547 566.79)">
		<path d="M23.1,51.5c-0.2-0.3-0.6-0.6-1-0.6h-6.9c-0.4,0-0.8,0.2-1,0.6l-3.5,5.8c-0.2,0.4-0.2,0.8,0,1.2l3.5,5.8&#xD;&#xA;			c0.2,0.3,0.6,0.6,1,0.6h6.9c0.4,0,0.8-0.2,1-0.6l3.5-5.8c0.2-0.4,0.2-0.8,0-1.2L23.1,51.5z M21.5,62.4h-5.6l-2.8-4.6l2.8-4.6h5.6&#xD;&#xA;			l2.8,4.6L21.5,62.4z" id="Path_403"/>
		<path d="M60.1,30.2c7.6,0,13.8-6.1,13.8-13.7c0-1.2-0.1-2.3-0.4-3.4c-0.2-0.6-0.8-1-1.4-0.8&#xD;&#xA;			c-0.2,0.1-0.4,0.2-0.5,0.3l-7.2,7.2l-5.7-1.9l-1.9-5.7L64,4.9c0.4-0.4,0.4-1.2,0-1.6c-0.1-0.1-0.3-0.3-0.5-0.3&#xD;&#xA;			c-7.4-1.9-14.9,2.6-16.7,10c-0.3,1.1-0.4,2.3-0.4,3.4c0,0.9,0.1,1.8,0.3,2.7L21.4,44.3c-0.9-0.2-1.8-0.3-2.7-0.3&#xD;&#xA;			C11,44,4.9,50.2,4.9,57.8S11,71.6,18.7,71.6c7.6,0,13.8-6.2,13.8-13.8c0-0.9-0.1-1.8-0.3-2.7l6-6l2.6,2.6c0.4,0.4,1.2,0.4,1.6,0&#xD;&#xA;			l0.6-0.6c0.5-0.5,1.3-0.5,1.8,0c0.5,0.5,0.5,1.3,0,1.8l-0.6,0.6c-0.4,0.4-0.4,1.2,0,1.6L58,68.9c3.6,3.7,9.5,3.7,13.1,0.1&#xD;&#xA;			c3.7-3.6,3.7-9.5,0.1-13.1c0,0,0,0-0.1-0.1l-0.1-0.1L57.5,42.1c-0.4-0.4-1.2-0.4-1.6,0l-0.6,0.6c-0.5,0.5-1.3,0.5-1.8,0&#xD;&#xA;			c-0.5-0.5-0.5-1.3,0-1.8l0,0l0.6-0.6c0.4-0.4,0.4-1.2,0-1.6c0,0,0,0,0,0L51.4,36l6-6C58.3,30.1,59.2,30.2,60.1,30.2L60.1,30.2z&#xD;&#xA;			 M64.6,69.3c-0.8,0-1.7-0.2-2.4-0.4l9-9c1.4,3.6-0.5,7.6-4.1,9C66.3,69.2,65.5,69.3,64.6,69.3z M51.6,39.4&#xD;&#xA;			c-1.3,1.5-1.1,3.8,0.4,5.1c1.3,1.1,3.3,1.1,4.6,0l12.9,12.9c0.1,0.1,0.3,0.3,0.4,0.4l-9.8,9.8c-0.2-0.1-0.3-0.3-0.4-0.4L46.8,54.4&#xD;&#xA;			c1.3-1.5,1.1-3.8-0.4-5.1c-1.3-1.1-3.3-1.1-4.6,0l-1.8-1.8l9.9-9.9L51.6,39.4z M56.2,27.9L30.1,54c-0.3,0.3-0.4,0.7-0.3,1.1&#xD;&#xA;			c1.6,6.2-2.2,12.5-8.4,14.1C15.3,70.7,8.9,67,7.4,60.8c-1.6-6.2,2.2-12.5,8.4-14.1c1.9-0.5,3.8-0.5,5.7,0c0.4,0.1,0.8,0,1.1-0.3&#xD;&#xA;			l26.1-26.1c0.3-0.3,0.4-0.7,0.3-1.1c-1.6-6.1,2.1-12.4,8.3-13.9c1.2-0.3,2.4-0.4,3.5-0.3L54.7,11c-0.3,0.3-0.4,0.8-0.3,1.2&#xD;&#xA;			l2.3,6.9c0.1,0.3,0.4,0.6,0.7,0.7l6.9,2.3c0.4,0.1,0.9,0,1.2-0.3l6.1-6.1c0,0.2,0,0.4,0,0.7c0,6.3-5.1,11.5-11.4,11.5&#xD;&#xA;			c-1,0-2-0.1-2.9-0.4C56.9,27.5,56.5,27.6,56.2,27.9L56.2,27.9L56.2,27.9z" id="Path_404"/>
	</g>
	<path d="M1480.9,627.3l-1.6,1.6l-11.5-11.5l1.6-1.6L1480.9,627.3z" id="Path_405"/>
</g>
</svg>