<svg version="1.2" xmlns="http://www.w3.org/2000/svg" viewBox="0 0 246 282" width="246" height="282">
	<title>xstringe logo final rgb</title>
	<style>
		tspan { white-space:pre } 
		.s0 { fill: #403f40 } 
		.s1 { fill: #1f6aae } 
		.s2 { fill: #ec1c24 } 
		.s3 { fill: #fff100 } 
		.s4 { fill: #fefefe } 
		.s5 { fill: #00a550 } 
		.t6 { font-size: 71px;fill: #43454b;font-weight: 800;font-family: "Gilroy" } 
		.t7 { font-size: 100px;fill: #43454b;font-weight: 800;font-family: "Gilroy" } 
		.s8 { fill: #119344 } 
		.s9 { fill: #00adee } 
	</style>
	<g id="Layer 1">
		<path id="&lt;Compound Path&gt;" fill-rule="evenodd" class="s0" d="m1994.3 216.6c0.3 12.4-1.9 24.1-9.7 34.2-8.4 10.8-24.5 15.2-37.6 11.2-16.2-4.9-26.2-16.9-35.8-29.7-37.6-49.8-72.7-101.4-107.1-153.5-5.9-8.9-6.5-14.6-0.3-23.5 16-23.2 30.7-47.3 46.2-70.9 1-1.6 3.5-3.4 5.3-3.4 27.7 1 54 6.2 75.9 25 14.1 12 23.7 27.1 30.8 43.9 11.4 26.8 16.3 55.2 20.7 83.7 3.6 23.4 7.3 46.8 10.8 70.2 0.6 4.2 0.5 8.5 0.8 12.8zm-96.1-137.6c8.2 0.1 15.5-7.1 15.4-15.2 0-7.8-7.1-14.8-15.1-14.9-8.2-0.1-15.4 6.9-15.3 15.1 0 8.1 6.9 14.9 15 15zm0 24.7c-8 0.1-14.9 7-15 15-0.1 8 7.4 15.4 15.3 15.3 7.6-0.1 15.1-7.5 15.1-15.1 0.1-7.9-7.3-15.3-15.4-15.2zm27.5-27.1c-8.4 0-15 6.3-15 14.5-0.1 8.6 6.4 15.1 15.1 15 8.4 0 14.9-6.2 15-14.5 0.2-8.4-6.5-15-15.1-15zm-54.6 29.5c8.5 0 14.8-6.3 14.7-14.8 0-8.5-6.3-14.7-14.9-14.7-8.8 0-15 6.2-14.9 15.1 0.1 8.5 6.3 14.5 15.1 14.4z"/>
		<g id="&lt;Group&gt;">
			<g id="&lt;Group&gt;">
				<path id="&lt;Compound Path&gt;" fill-rule="evenodd" class="s1" d="m1537.1 216.1c2.3-15.5 4.5-30.8 6.8-46.1 2.4-15.9 4.6-31.8 7.3-47.5 5.4-31.8 11.6-63.4 28.7-91.5 16.3-26.8 40.1-42.5 70.9-47.4 7.9-1.3 16-1.7 23.9-2.8 3.5-0.5 5.7 0.9 7.5 3.7q25.6 40 51.4 80.1c1.6 2.5 1.4 4.7-0.3 7.3-37.8 57.4-76.4 114.3-118.5 168.8-7.2 9.3-15.9 16.5-27.1 20.6-19.7 7.2-40.5-2.7-46.4-22.7-2.1-7.2-2.8-14.9-4.2-22.5zm78.1-139.2c-3 0-5.3 0-7.6 0-9.2 0.1-15.8 6-15.9 14.3-0.1 8.4 6.4 14.5 15.6 14.6 2.6 0 5.2 0 8.1 0 0 3.8-0.1 6.6 0 9.5 0.3 7.9 6.6 14.1 14.3 14.2 7.9 0.1 14.3-6.3 14.6-14.5 0-3 0-5.9 0-9.2 3.7 0 6.6 0.1 9.4 0 7.9-0.2 14.2-6.5 14.3-14.2 0.2-7.9-6.4-14.5-14.5-14.7-2.9-0.1-5.9 0-8.3 0-1-5.9-1.1-11.2-2.8-15.9-1.9-5.3-6.8-7.8-12.3-7.6-3.2 0.2-6.6 1.5-9.3 3.3-6.9 4.8-5.2 12.6-5.6 20.2z"/>
			</g>
		</g>
		<g id="&lt;Group&gt;">
			<path id="&lt;Path&gt;" class="s1" d="m1806.3 169.2c-27.3 0-53.4 0-80.8 0 13.3-20.8 26.5-41.3 40.2-62.7 13.8 21.3 27 41.7 40.6 62.7z"/>
		</g>
		<path id="&lt;Path&gt;" class="s0" d="m1765.7 28.3c-10.6-16.7-20.6-32.3-31.2-48.7 21 0 40.9 0 62.4 0-10.5 16.4-20.5 32-31.2 48.7z"/>
		<path id="&lt;Path&gt;" class="s2" d="m1898.2 79c-8.1-0.1-15-6.9-15-15-0.1-8.2 7.1-15.2 15.3-15.1 8 0.1 15.1 7.1 15.1 14.9 0.1 8.1-7.2 15.3-15.4 15.2z"/>
		<path id="&lt;Path&gt;" class="s3" d="m1898.2 103.7c8.1-0.1 15.5 7.3 15.4 15.2 0 7.6-7.5 15-15.1 15.1-7.9 0.1-15.4-7.3-15.3-15.3 0.1-8 7-14.9 15-15z"/>
		<g id="&lt;Group&gt;">
			<path id="&lt;Path&gt;" class="s4" d="m1925.7 76.6c8.6 0 15.3 6.6 15.1 15-0.1 8.3-6.6 14.5-15 14.5-8.7 0.1-15.2-6.4-15.1-15 0-8.2 6.6-14.5 15-14.5z"/>
		</g>
		<path id="&lt;Path&gt;" class="s5" d="m1871.1 106.1c-8.8 0.1-15-5.9-15.1-14.4-0.1-8.9 6.1-15.1 14.9-15.1 8.6 0 14.9 6.2 14.9 14.7 0.1 8.5-6.2 14.8-14.7 14.8z"/>
		<path id="&lt;Path&gt;" class="s4" d="m1615.2 76.9c0.4-7.6-1.3-15.4 5.6-20.2 2.7-1.8 6.1-3.1 9.3-3.3 5.5-0.2 10.4 2.3 12.3 7.6 1.7 4.7 1.8 10 2.8 15.9 2.4 0 5.4-0.1 8.3 0 8.1 0.2 14.7 6.8 14.5 14.7-0.1 7.7-6.4 14-14.3 14.2-2.8 0.1-5.7 0-9.4 0 0 3.3 0 6.2 0 9.2-0.3 8.2-6.7 14.6-14.6 14.5-7.7-0.1-14-6.3-14.3-14.2-0.1-2.9 0-5.7 0-9.5-2.9 0-5.5 0-8.1 0-9.2-0.1-15.7-6.2-15.6-14.6 0.1-8.3 6.7-14.2 15.9-14.3 2.3 0 4.6 0 7.6 0z"/>
		<text id="Xstringe
" style="transform: matrix(1,0,0,1,1635.967,255.39)" >
			<tspan x="0" y="0" class="t6">Xstringe
</tspan>
		</text>
		<g id="&lt;Group&gt;">
			<path id="&lt;Compound Path&gt;" fill-rule="evenodd" class="s0" d="m1917.5 786.2c0.2 8.8-1.3 17.1-6.9 24.2-6 7.7-17.3 10.8-26.7 8-11.5-3.5-18.5-12-25.3-21.1-26.8-35.3-51.6-72-76.1-108.9-4.2-6.3-4.5-10.4-0.2-16.7 11.4-16.5 21.8-33.6 32.8-50.3 0.7-1.2 2.5-2.5 3.8-2.4 19.6 0.7 38.3 4.4 53.8 17.7 10 8.6 16.8 19.3 21.9 31.2 8.1 19 11.6 39.1 14.7 59.4 2.6 16.6 5.1 33.2 7.6 49.8 0.5 3 0.4 6 0.6 9.1zm-68.2-97.7c5.8 0.1 11-5 11-10.7-0.1-5.6-5.1-10.6-10.8-10.6-5.8-0.1-10.9 4.9-10.8 10.7 0 5.7 4.9 10.6 10.6 10.6zm0 17.6c-5.7 0-10.6 4.9-10.6 10.6-0.1 5.6 5.2 11 10.8 10.9 5.4-0.1 10.7-5.4 10.8-10.7 0-5.7-5.2-10.9-11-10.8zm19.5-19.3c-5.9 0-10.6 4.5-10.6 10.3-0.1 6.1 4.5 10.7 10.7 10.7 6 0 10.6-4.4 10.7-10.3 0.1-6-4.6-10.7-10.8-10.7zm-38.7 21c6.1-0.1 10.5-4.5 10.4-10.6 0-6-4.5-10.4-10.5-10.4-6.3 0-10.7 4.5-10.6 10.8 0 6 4.5 10.2 10.7 10.2z"/>
			<g id="&lt;Group&gt;">
				<g id="&lt;Group&gt;">
					<path id="&lt;Compound Path&gt;" fill-rule="evenodd" class="s1" d="m1593.1 785.8c1.6-11 3.1-21.9 4.8-32.7 1.7-11.3 3.3-22.5 5.2-33.7 3.8-22.6 8.2-45 20.3-64.9 11.6-19 28.5-30.2 50.4-33.7 5.6-0.9 11.3-1.2 16.9-2 2.5-0.4 4 0.7 5.3 2.6q18.2 28.5 36.5 56.9c1.1 1.8 1 3.4-0.2 5.2-26.9 40.7-54.2 81.1-84.1 119.8-5.1 6.6-11.3 11.7-19.3 14.6-13.9 5.1-28.7-1.9-32.9-16.1-1.5-5.1-2-10.6-2.9-16zm55.3-98.8c-2.1 0-3.7 0-5.3 0-6.6 0.1-11.2 4.3-11.3 10.2-0.1 5.9 4.6 10.3 11.1 10.4 1.8 0 3.6 0 5.7 0 0 2.6-0.1 4.6 0 6.7 0.2 5.6 4.7 10 10.2 10.1 5.6 0.1 10.1-4.5 10.3-10.3 0.1-2.1 0-4.2 0-6.6 2.7 0 4.7 0.1 6.7 0 5.6-0.1 10.1-4.6 10.2-10.1 0.1-5.5-4.6-10.2-10.3-10.4-2.1 0-4.2 0-5.9 0-0.7-4.2-0.8-7.9-2-11.2-1.4-3.8-4.9-5.6-8.8-5.4-2.2 0.1-4.7 1-6.5 2.3-5 3.4-3.8 8.9-4.1 14.3z"/>
				</g>
			</g>
			<g id="&lt;Group&gt;">
				<path id="&lt;Path&gt;" class="s1" d="m1784.1 752.5c-19.4 0-37.9 0-57.4 0 9.5-14.7 18.9-29.3 28.6-44.5 9.8 15.1 19.2 29.6 28.8 44.5z"/>
			</g>
			<path id="&lt;Path&gt;" class="s0" d="m1755.3 652.5c-7.6-11.8-14.7-22.9-22.1-34.5 14.8 0 28.9 0 44.2 0-7.4 11.6-14.5 22.7-22.1 34.5z"/>
			<path id="&lt;Path&gt;" class="s2" d="m1849.3 688.5c-5.7 0-10.6-4.9-10.6-10.6-0.1-5.8 5-10.8 10.8-10.7 5.7 0 10.7 5 10.8 10.6 0 5.7-5.2 10.8-11 10.7z"/>
			<path id="&lt;Path&gt;" class="s3" d="m1849.3 706.1c5.8-0.1 11 5.1 11 10.8-0.1 5.3-5.4 10.6-10.8 10.7-5.6 0.1-10.9-5.3-10.8-10.9 0-5.7 4.9-10.6 10.6-10.6z"/>
			<g id="&lt;Group&gt;">
				<path id="&lt;Path&gt;" class="s4" d="m1868.8 686.8c6.2 0 10.9 4.7 10.8 10.7-0.1 5.9-4.7 10.3-10.7 10.3-6.2 0-10.8-4.6-10.7-10.7 0-5.8 4.7-10.3 10.6-10.3z"/>
			</g>
			<path id="&lt;Path&gt;" class="s5" d="m1830.1 707.8c-6.2 0-10.7-4.2-10.7-10.2-0.1-6.3 4.3-10.8 10.6-10.8 6 0 10.5 4.4 10.5 10.4 0.1 6.1-4.3 10.5-10.4 10.6z"/>
			<path id="&lt;Path&gt;" class="s4" d="m1648.4 687c0.3-5.4-0.9-10.9 4.1-14.3 1.8-1.3 4.3-2.2 6.5-2.3 3.9-0.2 7.4 1.6 8.8 5.4 1.2 3.3 1.3 7 2 11.2 1.7 0 3.8 0 5.9 0 5.7 0.2 10.4 4.9 10.3 10.4-0.1 5.5-4.6 10-10.2 10.1-2 0.1-4 0-6.7 0 0 2.4 0.1 4.5 0 6.6-0.2 5.8-4.7 10.4-10.3 10.3-5.5-0.1-10-4.5-10.2-10.1-0.1-2.1 0-4.1 0-6.7-2.1 0-3.9 0-5.7 0-6.5-0.1-11.2-4.5-11.1-10.4 0.1-5.9 4.7-10.1 11.3-10.2 1.6 0 3.2 0 5.3 0z"/>
		</g>
		<text id="Xstringe
" style="transform: matrix(1,0,0,1,1566.073,916.018)" >
			<tspan x="0" y="0" class="t7">Xstringe
</tspan>
		</text>
		<path id="&lt;Compound Path&gt;" class="s8" d="m-0.6 663.5c0 33.1-28.8 47.3-60 47.3-28.8 0-50.7-11-61.9-34.3l37.4-21.4c3.8 11 11.9 17 24.5 17 10.4 0 15.6-3.1 15.6-8.9 0-15.9-70.9-7.5-70.9-57.4 0-31.4 26.5-47.2 56.5-47.2 23.3 0 44.1 10.3 56.2 30.8l-36.9 19.9c-4-7.5-9.8-12.7-19.3-12.7-7.5 0-12.1 2.9-12.1 8.1 0 16.4 70.9 5.5 70.9 58.8z"/>
		<path id="&lt;Compound Path&gt;" class="s9" d="m71.5 604.1v51c0 12.4 10.6 13.6 29.7 12.4v39.2c-56.5 5.8-73-11.2-73-51.6v-51h-23v-41.5h23v-27.4l43.3-13v40.4h29.7v41.5z"/>
		<path id="&lt;Compound Path&gt;" class="s0" d="m215 559.7v49c-17.9-2.9-43.2 4.3-43.2 32.9v65.1h-43.3v-144.1h43.3v25.6c5.7-19.3 25-28.5 43.2-28.5z"/>
		<path id="&lt;Compound Path&gt;" class="s0" d="m230.9 524c0-14.2 11.8-26 25.9-26 14.1 0 25.9 11.8 25.9 26 0 14.1-11.8 25.9-25.9 25.9-14.1 0-25.9-11.8-25.9-25.9zm4.3 38.6h43.2v144.1h-43.2z"/>
		<path id="&lt;Compound Path&gt;" class="s0" d="m448.5 618.2v88.5h-43.2v-82.1c0-17.9-11.3-26.3-25.1-26.3-15.9 0-26.8 9.3-26.8 29.7v78.7h-43.3v-144.1h43.3v13.5c7.8-10.6 22.2-17.5 41.2-17.5 29.1 0 53.9 20.7 53.9 59.6z"/>
		<path id="&lt;Compound Path&gt;" fill-rule="evenodd" class="s0" d="m626.1 562.6v136.9c0 48.4-37.8 68.9-76.1 68.9-30 0-55.1-11.2-68.4-34.9l36.9-21.3c5.5 10.1 13.9 18.2 32.9 18.2 20.2 0 32.6-10.4 32.6-30.9v-13.2c-9.5 11.8-23.4 18.7-42.1 18.7-40.9 0-70.9-33.5-70.9-73.2 0-39.8 30-73.2 70.9-73.2 18.7 0 32.6 6.9 42.1 18.7v-14.7zm-42.1 69.2c0-19.9-14.4-33.5-34.9-33.5-20.5 0-34.9 13.6-34.9 33.5 0 19.9 14.4 33.4 34.9 33.4 20.5 0 34.9-13.5 34.9-33.4z"/>
		<path id="&lt;Compound Path&gt;" fill-rule="evenodd" class="s0" d="m731 672.1c11.8 0 21.9-4.6 27.7-10.9l34.5 19.9c-14.1 19.6-35.4 29.7-62.8 29.7-49.3 0-79.8-33.2-79.8-76.1 0-43 31.1-76.1 76.6-76.1 42.1 0 73.2 32.5 73.2 76.1q0.1 9-1.7 17.2h-102.3c5.5 15 18.7 20.2 34.6 20.2zm26.5-52.4c-4.6-16.8-17.6-22.8-30.6-22.8-16.4 0-27.3 8.1-31.4 22.8z"/>
		<g id="&lt;Group&gt;">
			<path id="&lt;Path&gt;" class="s2" d="m229.3 50.6c-21.3 22.5-42.3 44.8-63.6 67.4-4.5-4.7-8.8-9.3-13.1-13.8-7.7-8.2-15.3-16.4-23.1-24.4-0.9-1-2.5-1.8-3.8-1.8-14.9-0.1-29.8-0.1-44.7-0.1-0.3 0-0.7 0.1-1.9 0.2 21 22.6 41.7 44.8 62.6 67.2-21.7 23.4-43.2 46.6-64.6 69.9q0.2 0.3 0.4 0.7 1.3 0 2.7 0c13.5 0 26.9-0.1 40.4 0 2 0 3.3-0.6 4.6-2 12.8-13.6 25.7-27.1 38.5-40.8 1.7-1.8 2.4-1.5 3.9 0 15.4 16.8 30.9 33.4 46.4 50.1q7 7.6 14.2 15.2c0.7 0.8 1.6 1.4 3 2.5-6.6 4.8-12.9 9.9-19.6 14.3-10.3 6.8-21.7 11.7-33.6 15q-22.4 6.1-45.6 4.2-17.5-1.4-33.9-7.4c-12.4-4.5-23.9-11-34.4-19.2-13.8-10.8-25-23.8-33.5-39.2-7.8-14.1-12.6-29.1-14.9-45-2.3-16-1.5-31.7 2.2-47.1 6.3-26.1 19.5-48.2 39.5-66.2 13.7-12.3 29.4-21.4 47-26.7 8.8-2.7 18.2-3.8 27.4-5.5 1.1-0.2 2.4 0.6 3.6 0.7 1.1 0.1 2.2-0.1 3.3-0.3 2.4-0.3 4.9-1.1 7.2-1 6.6 0.5 13.2 1.3 19.8 2.1 9 1.2 17.7 3.9 26 7.4 13 5.3 24.9 12.5 35.5 21.7 0.7 0.6 1.3 1.3 2.1 1.9z"/>
		</g>
	</g>
</svg>