<?xml version="1.0" encoding="UTF-8"?>
<!DOCTYPE svg PUBLIC "-//W3C//DTD SVG 1.1//EN" "http://www.w3.org/Graphics/SVG/1.1/DTD/svg11.dtd">
<svg xmlns="http://www.w3.org/2000/svg" version="1.1" width="329px" height="329px" style="shape-rendering:geometricPrecision; text-rendering:geometricPrecision; image-rendering:optimizeQuality; fill-rule:evenodd; clip-rule:evenodd" xmlns:xlink="http://www.w3.org/1999/xlink">
<g><path style="opacity:1" fill="#4e7800" d="M 179.5,14.5 C 180.167,15.1667 180.833,15.8333 181.5,16.5C 170.523,15.6491 159.523,15.3157 148.5,15.5C 158.633,13.292 168.966,12.9587 179.5,14.5 Z"/></g>
<g><path style="opacity:1" fill="#446502" d="M 148.5,15.5 C 159.523,15.3157 170.523,15.6491 181.5,16.5C 184.941,16.3011 188.274,16.8011 191.5,18C 195.898,20.2711 200.564,21.9378 205.5,23C 207.937,24.5387 210.27,26.0387 212.5,27.5C 205.78,24.7347 198.78,22.7347 191.5,21.5C 188.627,21.1977 185.961,20.531 183.5,19.5C 181.031,18.6829 178.365,18.1829 175.5,18C 165.5,17.3333 155.5,17.3333 145.5,18C 141.89,18.7384 138.557,19.9051 135.5,21.5C 130.14,23.0096 124.807,24.843 119.5,27C 118.934,27.9947 118.267,28.828 117.5,29.5C 113.889,31.6437 110.222,33.8104 106.5,36C 100.703,41.8122 95.0362,47.6455 89.5,53.5C 94.3936,46.2654 100.06,39.5987 106.5,33.5C 111.736,28.9625 117.736,25.6291 124.5,23.5C 125.287,22.7579 125.953,21.9246 126.5,21C 133.624,18.2189 140.958,16.3856 148.5,15.5 Z"/></g>
<g><path style="opacity:1" fill="#334704" d="M 183.5,19.5 C 167.366,17.6167 151.366,18.2834 135.5,21.5C 138.557,19.9051 141.89,18.7384 145.5,18C 155.5,17.3333 165.5,17.3333 175.5,18C 178.365,18.1829 181.031,18.6829 183.5,19.5 Z"/></g>
<g><path style="opacity:1" fill="#81b21c" d="M 181.5,12.5 C 181.5,13.8333 180.833,14.5 179.5,14.5C 168.966,12.9587 158.633,13.292 148.5,15.5C 140.958,16.3856 133.624,18.2189 126.5,21C 125.953,21.9246 125.287,22.7579 124.5,23.5C 117.736,25.6291 111.736,28.9625 106.5,33.5C 102.263,36.2281 98.4294,39.5615 95,43.5C 94.5357,42.9056 94.369,42.2389 94.5,41.5C 96.5797,37.9135 99.2463,34.7468 102.5,32C 109.48,27.698 116.48,23.3647 123.5,19C 133.006,15.7198 142.673,13.0531 152.5,11C 160.167,10.3333 167.833,10.3333 175.5,11C 177.708,11.1909 179.708,11.6909 181.5,12.5 Z"/></g>
<g><path style="opacity:1" fill="#030202" d="M 247.5,88.5 C 248.493,95.4618 249.16,102.462 249.5,109.5C 249.167,112.5 248.833,115.5 248.5,118.5C 239.829,103.147 232.496,87.1473 226.5,70.5C 226.709,69.914 227.043,69.414 227.5,69C 225.126,65.3309 223.126,61.4976 221.5,57.5C 219.5,56.1667 217.5,54.8333 215.5,53.5C 212,46.9046 206.667,42.4046 199.5,40C 199.833,39.6667 200.167,39.3333 200.5,39C 197.173,38.3897 193.839,37.8897 190.5,37.5C 190.5,36.5 190.5,35.5 190.5,34.5C 182.448,34.5297 174.615,33.1964 167,30.5C 158.562,31.0989 150.062,32.2655 141.5,34C 131.431,37.3361 122.264,42.1694 114,48.5C 113.517,49.448 113.351,50.448 113.5,51.5C 110.737,51.7438 108.571,53.0771 107,55.5C 105.159,59.1832 102.826,62.5165 100,65.5C 94.5189,77.5176 89.3522,89.5176 84.5,101.5C 82.4118,103.428 80.9118,105.761 80,108.5C 79.5026,105.854 79.3359,103.187 79.5,100.5C 84.2908,71.2306 98.9575,48.3972 123.5,32C 140.32,24.3711 157.986,21.3711 176.5,23C 189.949,25.8945 202.282,31.2278 213.5,39C 220.436,45.0232 227.27,51.1898 234,57.5C 239.087,67.6641 243.587,77.9974 247.5,88.5 Z"/></g>
<g><path style="opacity:1" fill="#243404" d="M 183.5,19.5 C 185.961,20.531 188.627,21.1977 191.5,21.5C 194.7,23.1887 197.7,25.1887 200.5,27.5C 196.771,27.424 193.438,26.2574 190.5,24C 155.9,14.9379 126.067,22.7712 101,47.5C 93.7592,57.8897 87.2592,68.723 81.5,80C 77.5052,91.4883 75.5052,103.322 75.5,115.5C 75.1667,115.5 74.8333,115.5 74.5,115.5C 73.5139,119.97 73.1805,124.637 73.5,129.5C 72.5093,135.979 72.176,142.646 72.5,149.5C 71.6909,147.708 71.1909,145.708 71,143.5C 70.3333,133.5 70.3333,123.5 71,113.5C 74.0484,98.6956 77.5484,84.0289 81.5,69.5C 81.5,68.8333 81.5,68.1667 81.5,67.5C 83.4258,66.7577 85.2591,65.7577 87,64.5C 90.0835,57.574 94.0835,51.2407 99,45.5C 104.585,39.3216 110.752,33.9883 117.5,29.5C 118.267,28.828 118.934,27.9947 119.5,27C 124.807,24.843 130.14,23.0096 135.5,21.5C 151.366,18.2834 167.366,17.6167 183.5,19.5 Z"/></g>
<g><path style="opacity:1" fill="#0a0902" d="M 247.5,88.5 C 249.879,94.1407 251.212,100.141 251.5,106.5C 251.5,109.833 251.5,113.167 251.5,116.5C 251.666,122.509 251.499,128.509 251,134.5C 249.933,133.809 248.766,133.309 247.5,133C 243.94,125.421 239.606,117.921 234.5,110.5C 231.618,109.119 229.618,106.952 228.5,104C 229.167,103.667 229.833,103.333 230.5,103C 227.67,98.9901 225.003,94.8234 222.5,90.5C 221.311,89.5713 219.978,89.238 218.5,89.5C 217.71,84.2426 216.043,79.2426 213.5,74.5C 214.155,68.0874 212.655,62.0874 209,56.5C 207.581,55.5399 206.081,54.7065 204.5,54C 198.498,44.9938 190.165,39.6605 179.5,38C 169.357,37.0526 159.191,36.5526 149,36.5C 141.226,36.6892 134.226,39.0225 128,43.5C 127.667,43.1667 127.333,42.8333 127,42.5C 125.933,43.1905 124.766,43.6905 123.5,44C 119.689,48.3043 115.356,52.1376 110.5,55.5C 101.645,69.7159 94.3119,84.7159 88.5,100.5C 86.3993,104.61 84.566,108.944 83,113.5C 81.1862,114.76 79.3529,114.76 77.5,113.5C 78.1136,109.033 78.7803,104.7 79.5,100.5C 79.3359,103.187 79.5026,105.854 80,108.5C 80.9118,105.761 82.4118,103.428 84.5,101.5C 89.3522,89.5176 94.5189,77.5176 100,65.5C 102.826,62.5165 105.159,59.1832 107,55.5C 108.571,53.0771 110.737,51.7438 113.5,51.5C 113.351,50.448 113.517,49.448 114,48.5C 122.264,42.1694 131.431,37.3361 141.5,34C 150.062,32.2655 158.562,31.0989 167,30.5C 174.615,33.1964 182.448,34.5297 190.5,34.5C 190.5,35.5 190.5,36.5 190.5,37.5C 193.839,37.8897 197.173,38.3897 200.5,39C 200.167,39.3333 199.833,39.6667 199.5,40C 206.667,42.4046 212,46.9046 215.5,53.5C 217.5,54.8333 219.5,56.1667 221.5,57.5C 223.126,61.4976 225.126,65.3309 227.5,69C 227.043,69.414 226.709,69.914 226.5,70.5C 232.496,87.1473 239.829,103.147 248.5,118.5C 248.833,115.5 249.167,112.5 249.5,109.5C 249.16,102.462 248.493,95.4618 247.5,88.5 Z"/></g>
<g><path style="opacity:1" fill="#100f04" d="M 251.5,116.5 C 252.656,124.323 252.823,132.323 252,140.5C 248.85,141.724 246.017,141.057 243.5,138.5C 240.522,133.209 236.856,128.542 232.5,124.5C 231.033,124.277 229.533,123.944 228,123.5C 227.506,121.866 227.34,120.199 227.5,118.5C 222.767,118.777 218.1,118.443 213.5,117.5C 211.68,118.883 209.68,119.883 207.5,120.5C 206.623,117.748 206.29,114.748 206.5,111.5C 205.635,110.417 204.635,110.251 203.5,111C 204.458,112.147 204.125,113.147 202.5,114C 201.552,114.483 200.552,114.649 199.5,114.5C 199.736,111.774 198.903,109.441 197,107.5C 196.667,102.833 196.333,98.1667 196,93.5C 196.041,98.7255 195.208,103.725 193.5,108.5C 196.817,109.929 197.15,111.762 194.5,114C 194.759,115.261 195.426,116.261 196.5,117C 194.129,119.706 191.463,122.039 188.5,124C 184.797,124.579 181.131,124.412 177.5,123.5C 176.5,128.833 175.5,128.833 174.5,123.5C 172.453,123.489 170.453,123.156 168.5,122.5C 167.353,122.818 166.519,123.484 166,124.5C 164.175,120.766 163.175,116.766 163,112.5C 162.55,115.106 161.05,116.439 158.5,116.5C 158.5,117.833 158.5,119.167 158.5,120.5C 157.5,120.5 156.5,120.5 155.5,120.5C 155.5,121.833 155.5,123.167 155.5,124.5C 154.448,125.53 153.114,126.197 151.5,126.5C 149.465,125.796 147.465,125.129 145.5,124.5C 145.15,120.946 145.816,117.612 147.5,114.5C 146.965,112.729 146.131,112.396 145,113.5C 144.517,112.552 144.351,111.552 144.5,110.5C 145.222,110.082 145.722,109.416 146,108.5C 146.333,108.833 146.667,109.167 147,109.5C 148.857,107.053 148.69,104.887 146.5,103C 147.836,100.322 148.67,97.4887 149,94.5C 150.011,93.6634 151.178,93.33 152.5,93.5C 152.937,89.6715 153.104,86.0048 153,82.5C 155.121,79.3765 157.621,76.5432 160.5,74C 159.724,72.2302 159.89,70.3969 161,68.5C 162.789,70.229 164.956,70.8957 167.5,70.5C 167.5,68.5 167.5,66.5 167.5,64.5C 168.675,64.719 169.675,64.3857 170.5,63.5C 168.604,62.5344 166.604,62.2011 164.5,62.5C 164.5,58.8333 164.5,55.1667 164.5,51.5C 167.187,51.6641 169.854,51.4974 172.5,51C 171.833,50.6667 171.167,50.3333 170.5,50C 171.956,49.5774 172.456,48.7441 172,47.5C 166.272,44.6093 160.272,42.2759 154,40.5C 146.548,41.0973 139.548,43.0973 133,46.5C 131.739,46.2409 130.739,45.5742 130,44.5C 128.885,46.9081 127.218,48.9081 125,50.5C 124.517,51.448 124.351,52.448 124.5,53.5C 123.178,53.67 122.011,53.3366 121,52.5C 114.459,58.4243 109.459,66.0909 106,75.5C 98.5815,85.0036 93.2482,95.6702 90,107.5C 89.2917,108.381 88.4584,109.047 87.5,109.5C 87.0618,109.565 86.7284,109.399 86.5,109C 87.9915,106.379 88.6582,103.545 88.5,100.5C 94.3119,84.7159 101.645,69.7159 110.5,55.5C 115.356,52.1376 119.689,48.3043 123.5,44C 124.766,43.6905 125.933,43.1905 127,42.5C 127.333,42.8333 127.667,43.1667 128,43.5C 134.226,39.0225 141.226,36.6892 149,36.5C 159.191,36.5526 169.357,37.0526 179.5,38C 190.165,39.6605 198.498,44.9938 204.5,54C 206.081,54.7065 207.581,55.5399 209,56.5C 212.655,62.0874 214.155,68.0874 213.5,74.5C 216.043,79.2426 217.71,84.2426 218.5,89.5C 219.978,89.238 221.311,89.5713 222.5,90.5C 225.003,94.8234 227.67,98.9901 230.5,103C 229.833,103.333 229.167,103.667 228.5,104C 229.618,106.952 231.618,109.119 234.5,110.5C 239.606,117.921 243.94,125.421 247.5,133C 248.766,133.309 249.933,133.809 251,134.5C 251.499,128.509 251.666,122.509 251.5,116.5 Z"/></g>
<g><path style="opacity:1" fill="#395204" d="M 191.5,21.5 C 198.78,22.7347 205.78,24.7347 212.5,27.5C 221.82,34.8206 230.486,42.8206 238.5,51.5C 239.738,57.5999 242.571,62.9332 247,67.5C 247.661,70.9457 248.495,74.2791 249.5,77.5C 247.649,74.6276 245.983,71.6276 244.5,68.5C 242.474,65.4822 240.474,62.4822 238.5,59.5C 238.005,57.5183 237.505,55.5183 237,53.5C 233.869,50.6647 231.036,47.4981 228.5,44C 221.5,39 214.5,34 207.5,29C 205.846,28.3923 204.179,27.8923 202.5,27.5C 201.833,27.5 201.167,27.5 200.5,27.5C 197.7,25.1887 194.7,23.1887 191.5,21.5 Z"/></g>
<g><path style="opacity:1" fill="#1a1709" d="M 144.5,110.5 C 141.772,110.171 139.438,110.837 137.5,112.5C 136.504,112.586 135.671,112.252 135,111.5C 135.39,108.269 135.224,104.935 134.5,101.5C 133.178,101.67 132.011,101.337 131,100.5C 129.1,95.0866 130.933,92.7532 136.5,93.5C 136.5,90.8333 136.5,88.1667 136.5,85.5C 141.355,85.0337 143.355,82.5337 142.5,78C 144.608,77.6401 146.608,76.9734 148.5,76C 147.764,72.1412 146.598,68.6412 145,65.5C 146.395,64.1854 147.395,64.5188 148,66.5C 150.135,64.7215 152.635,64.0548 155.5,64.5C 155.628,62.3453 155.128,60.3453 154,58.5C 153,57.1667 152,57.1667 151,58.5C 150.727,56.8988 150.227,55.3988 149.5,54C 145.646,53.6459 141.812,53.1459 138,52.5C 132.567,53.4151 132.4,54.2484 137.5,55C 134.491,54.84 132.325,56.0067 131,58.5C 126.684,56.3986 124.184,57.732 123.5,62.5C 121.867,64.503 119.867,65.8363 117.5,66.5C 117.019,70.2024 116.352,73.8691 115.5,77.5C 115.833,78.1667 116.167,78.8333 116.5,79.5C 115.478,80.354 114.645,81.354 114,82.5C 113.798,80.7444 113.298,79.0777 112.5,77.5C 111.457,80.4205 109.79,82.9205 107.5,85C 108.5,87.0907 107.833,88.7574 105.5,90C 105.833,90.3333 106.167,90.6667 106.5,91C 104.616,91.2163 102.949,91.883 101.5,93C 102.167,93.3333 102.833,93.6667 103.5,94C 102.766,96.5607 101.433,98.7274 99.5,100.5C 96.2735,105.582 92.7735,110.582 89,115.5C 88.8019,117.382 88.3019,119.048 87.5,120.5C 86.7611,120.631 86.0944,120.464 85.5,120C 86.1667,118.333 86.8333,116.667 87.5,115C 86.4639,113.224 86.4639,111.391 87.5,109.5C 88.4584,109.047 89.2917,108.381 90,107.5C 93.2482,95.6702 98.5815,85.0036 106,75.5C 109.459,66.0909 114.459,58.4243 121,52.5C 122.011,53.3366 123.178,53.67 124.5,53.5C 124.351,52.448 124.517,51.448 125,50.5C 127.218,48.9081 128.885,46.9081 130,44.5C 130.739,45.5742 131.739,46.2409 133,46.5C 139.548,43.0973 146.548,41.0973 154,40.5C 160.272,42.2759 166.272,44.6093 172,47.5C 172.456,48.7441 171.956,49.5774 170.5,50C 171.167,50.3333 171.833,50.6667 172.5,51C 169.854,51.4974 167.187,51.6641 164.5,51.5C 164.5,55.1667 164.5,58.8333 164.5,62.5C 166.604,62.2011 168.604,62.5344 170.5,63.5C 169.675,64.3857 168.675,64.719 167.5,64.5C 167.5,66.5 167.5,68.5 167.5,70.5C 164.956,70.8957 162.789,70.229 161,68.5C 159.89,70.3969 159.724,72.2302 160.5,74C 157.621,76.5432 155.121,79.3765 153,82.5C 153.104,86.0048 152.937,89.6715 152.5,93.5C 151.178,93.33 150.011,93.6634 149,94.5C 148.67,97.4887 147.836,100.322 146.5,103C 148.69,104.887 148.857,107.053 147,109.5C 146.667,109.167 146.333,108.833 146,108.5C 145.722,109.416 145.222,110.082 144.5,110.5 Z"/></g>
<g><path style="opacity:1" fill="#3a5104" d="M 117.5,29.5 C 110.752,33.9883 104.585,39.3216 99,45.5C 94.0835,51.2407 90.0835,57.574 87,64.5C 85.2591,65.7577 83.4258,66.7577 81.5,67.5C 81.3573,65.7376 81.6906,64.0709 82.5,62.5C 85.2675,59.7452 87.6009,56.7452 89.5,53.5C 95.0362,47.6455 100.703,41.8122 106.5,36C 110.222,33.8104 113.889,31.6437 117.5,29.5 Z"/></g>
<g><path style="opacity:1" fill="#74a31a" d="M 181.5,12.5 C 211.052,18.3513 233.218,34.3513 248,60.5C 264.632,95.7037 269.465,132.37 262.5,170.5C 262.818,165.968 262.485,161.634 261.5,157.5C 263.523,136.868 262.523,116.535 258.5,96.5C 255.248,88.9294 252.748,80.9294 251,72.5C 247.311,65.1061 243.144,58.1061 238.5,51.5C 230.486,42.8206 221.82,34.8206 212.5,27.5C 210.27,26.0387 207.937,24.5387 205.5,23C 200.564,21.9378 195.898,20.2711 191.5,18C 188.274,16.8011 184.941,16.3011 181.5,16.5C 180.833,15.8333 180.167,15.1667 179.5,14.5C 180.833,14.5 181.5,13.8333 181.5,12.5 Z"/></g>
<g><path style="opacity:1" fill="#0c1302" d="M 200.5,27.5 C 201.167,27.5 201.833,27.5 202.5,27.5C 203.29,28.7942 204.29,29.9609 205.5,31C 210.651,32.9147 214.651,36.2481 217.5,41C 220.588,42.8747 223.921,44.2081 227.5,45C 230.898,49.6377 233.898,54.4711 236.5,59.5C 238.404,62.3982 240.237,65.3982 242,68.5C 243.899,75.1719 245.733,81.8386 247.5,88.5C 243.587,77.9974 239.087,67.6641 234,57.5C 227.27,51.1898 220.436,45.0232 213.5,39C 202.282,31.2278 189.949,25.8945 176.5,23C 157.986,21.3711 140.32,24.3711 123.5,32C 98.9575,48.3972 84.2908,71.2306 79.5,100.5C 78.7803,104.7 78.1136,109.033 77.5,113.5C 79.3529,114.76 81.1862,114.76 83,113.5C 84.566,108.944 86.3993,104.61 88.5,100.5C 88.6582,103.545 87.9915,106.379 86.5,109C 86.7284,109.399 87.0618,109.565 87.5,109.5C 86.4639,111.391 86.4639,113.224 87.5,115C 86.8333,116.667 86.1667,118.333 85.5,120C 86.0944,120.464 86.7611,120.631 87.5,120.5C 85.267,126.854 82.267,132.854 78.5,138.5C 76.9309,137.286 76.0976,135.619 76,133.5C 75.5005,127.509 75.3338,121.509 75.5,115.5C 75.5052,103.322 77.5052,91.4883 81.5,80C 87.2592,68.723 93.7592,57.8897 101,47.5C 126.067,22.7712 155.9,14.9379 190.5,24C 193.438,26.2574 196.771,27.424 200.5,27.5 Z"/></g>
<g><path style="opacity:1" fill="#283805" d="M 202.5,27.5 C 204.179,27.8923 205.846,28.3923 207.5,29C 214.5,34 221.5,39 228.5,44C 231.036,47.4981 233.869,50.6647 237,53.5C 237.505,55.5183 238.005,57.5183 238.5,59.5C 237.833,59.5 237.167,59.5 236.5,59.5C 233.898,54.4711 230.898,49.6377 227.5,45C 223.921,44.2081 220.588,42.8747 217.5,41C 214.651,36.2481 210.651,32.9147 205.5,31C 204.29,29.9609 203.29,28.7942 202.5,27.5 Z"/></g>
<g><path style="opacity:1" fill="#1d1c0a" d="M 137.5,112.5 C 137.38,113.586 136.713,114.253 135.5,114.5C 133.927,114.248 132.594,113.582 131.5,112.5C 131.611,111.883 131.944,111.383 132.5,111C 129.905,110.774 127.405,110.274 125,109.5C 121.253,110.48 117.253,110.813 113,110.5C 111.812,109.437 111.312,108.103 111.5,106.5C 108.482,106.665 105.482,106.498 102.5,106C 103.687,104.981 104.687,103.814 105.5,102.5C 103.369,101.831 101.369,101.165 99.5,100.5C 101.433,98.7274 102.766,96.5607 103.5,94C 102.833,93.6667 102.167,93.3333 101.5,93C 102.949,91.883 104.616,91.2163 106.5,91C 106.167,90.6667 105.833,90.3333 105.5,90C 107.833,88.7574 108.5,87.0907 107.5,85C 109.79,82.9205 111.457,80.4205 112.5,77.5C 113.298,79.0777 113.798,80.7444 114,82.5C 114.645,81.354 115.478,80.354 116.5,79.5C 116.167,78.8333 115.833,78.1667 115.5,77.5C 116.352,73.8691 117.019,70.2024 117.5,66.5C 119.867,65.8363 121.867,64.503 123.5,62.5C 124.184,57.732 126.684,56.3986 131,58.5C 132.325,56.0067 134.491,54.84 137.5,55C 132.4,54.2484 132.567,53.4151 138,52.5C 141.812,53.1459 145.646,53.6459 149.5,54C 150.227,55.3988 150.727,56.8988 151,58.5C 152,57.1667 153,57.1667 154,58.5C 155.128,60.3453 155.628,62.3453 155.5,64.5C 152.635,64.0548 150.135,64.7215 148,66.5C 147.395,64.5188 146.395,64.1854 145,65.5C 146.598,68.6412 147.764,72.1412 148.5,76C 146.608,76.9734 144.608,77.6401 142.5,78C 143.355,82.5337 141.355,85.0337 136.5,85.5C 136.5,88.1667 136.5,90.8333 136.5,93.5C 130.933,92.7532 129.1,95.0866 131,100.5C 132.011,101.337 133.178,101.67 134.5,101.5C 135.224,104.935 135.39,108.269 135,111.5C 135.671,112.252 136.504,112.586 137.5,112.5 Z"/></g>
<g><path style="opacity:1" fill="#729f19" d="M 106.5,33.5 C 100.06,39.5987 94.3936,46.2654 89.5,53.5C 87.6009,56.7452 85.2675,59.7452 82.5,62.5C 81.6906,64.0709 81.3573,65.7376 81.5,67.5C 79.5487,68.2823 78.0487,69.6156 77,71.5C 75.3875,77.0623 74.2208,82.729 73.5,88.5C 70.0746,93.144 68.7412,98.4773 69.5,104.5C 68.8333,105.833 68.1667,107.167 67.5,108.5C 67.2601,105.421 67.5934,102.421 68.5,99.5C 68.0431,98.7025 67.3764,98.3691 66.5,98.5C 69.4833,82.3819 75.3167,67.3819 84,53.5C 87.2818,49.2406 90.7818,45.2406 94.5,41.5C 94.369,42.2389 94.5357,42.9056 95,43.5C 98.4294,39.5615 102.263,36.2281 106.5,33.5 Z"/></g>
<g><path style="opacity:1" fill="#4e7701" d="M 81.5,67.5 C 81.5,68.1667 81.5,68.8333 81.5,69.5C 79.8639,70.7489 78.6972,72.4156 78,74.5C 76.7907,79.364 75.2907,84.0307 73.5,88.5C 74.2208,82.729 75.3875,77.0623 77,71.5C 78.0487,69.6156 79.5487,68.2823 81.5,67.5 Z"/></g>
<g><path style="opacity:1" fill="#1a2603" d="M 236.5,59.5 C 237.167,59.5 237.833,59.5 238.5,59.5C 240.474,62.4822 242.474,65.4822 244.5,68.5C 246.906,78.9078 249.739,89.2411 253,99.5C 253.499,104.155 253.666,108.821 253.5,113.5C 252.833,111.167 252.167,108.833 251.5,106.5C 251.212,100.141 249.879,94.1407 247.5,88.5C 245.733,81.8386 243.899,75.1719 242,68.5C 240.237,65.3982 238.404,62.3982 236.5,59.5 Z"/></g>
<g><path style="opacity:1" fill="#162107" d="M 99.5,100.5 C 101.369,101.165 103.369,101.831 105.5,102.5C 104.687,103.814 103.687,104.981 102.5,106C 105.482,106.498 108.482,106.665 111.5,106.5C 111.312,108.103 111.812,109.437 113,110.5C 117.253,110.813 121.253,110.48 125,109.5C 127.405,110.274 129.905,110.774 132.5,111C 131.944,111.383 131.611,111.883 131.5,112.5C 132.053,114.939 132.053,117.273 131.5,119.5C 133.503,122.504 135.503,125.504 137.5,128.5C 134.927,129.493 132.26,130.326 129.5,131C 130.308,131.308 130.975,131.808 131.5,132.5C 130.873,133.417 130.539,134.417 130.5,135.5C 127.302,132.214 123.636,129.381 119.5,127C 115.167,126.667 110.833,126.333 106.5,126C 105.809,124.933 105.309,123.766 105,122.5C 100.586,124.363 96.4193,126.696 92.5,129.5C 91.4937,129.062 91.4937,128.396 92.5,127.5C 91.3112,126.571 89.9778,126.238 88.5,126.5C 85.2264,132.063 82.7264,138.063 81,144.5C 79.8455,145.743 78.5122,146.743 77,147.5C 74.8545,136.959 74.0212,126.293 74.5,115.5C 74.8333,115.5 75.1667,115.5 75.5,115.5C 75.3338,121.509 75.5005,127.509 76,133.5C 76.0976,135.619 76.9309,137.286 78.5,138.5C 82.267,132.854 85.267,126.854 87.5,120.5C 88.3019,119.048 88.8019,117.382 89,115.5C 92.7735,110.582 96.2735,105.582 99.5,100.5 Z"/></g>
<g><path style="opacity:1" fill="#0a1604" d="M 251.5,106.5 C 252.167,108.833 252.833,111.167 253.5,113.5C 253.828,125.678 253.495,137.678 252.5,149.5C 251.162,151.113 249.495,151.613 247.5,151C 242.539,145.226 237.039,140.06 231,135.5C 230.333,136.167 229.667,136.833 229,137.5C 228.138,135.913 227.471,134.246 227,132.5C 225.115,134.02 222.949,135.02 220.5,135.5C 216.187,134.229 211.854,134.229 207.5,135.5C 202.76,138.622 197.927,141.622 193,144.5C 192.667,143.833 192.333,143.167 192,142.5C 190.108,143.617 189.275,145.284 189.5,147.5C 186.212,147.073 183.212,147.74 180.5,149.5C 174.947,148.199 169.447,146.865 164,145.5C 162.667,146.167 161.333,146.833 160,147.5C 157.719,146.224 155.719,144.557 154,142.5C 149.998,145.157 147.332,144.49 146,140.5C 142.161,138.367 140.161,135.034 140,130.5C 139.292,129.619 138.458,128.953 137.5,128.5C 135.503,125.504 133.503,122.504 131.5,119.5C 132.053,117.273 132.053,114.939 131.5,112.5C 132.594,113.582 133.927,114.248 135.5,114.5C 136.713,114.253 137.38,113.586 137.5,112.5C 139.438,110.837 141.772,110.171 144.5,110.5C 144.351,111.552 144.517,112.552 145,113.5C 146.131,112.396 146.965,112.729 147.5,114.5C 145.816,117.612 145.15,120.946 145.5,124.5C 147.465,125.129 149.465,125.796 151.5,126.5C 153.114,126.197 154.448,125.53 155.5,124.5C 157.876,127.758 160.209,131.258 162.5,135C 166.756,136.713 170.922,138.546 175,140.5C 177.796,138.834 180.296,139.167 182.5,141.5C 189.932,137.608 196.932,132.941 203.5,127.5C 205.578,125.572 206.245,123.405 205.5,121C 206.094,120.536 206.761,120.369 207.5,120.5C 209.68,119.883 211.68,118.883 213.5,117.5C 218.1,118.443 222.767,118.777 227.5,118.5C 227.34,120.199 227.506,121.866 228,123.5C 229.533,123.944 231.033,124.277 232.5,124.5C 236.856,128.542 240.522,133.209 243.5,138.5C 246.017,141.057 248.85,141.724 252,140.5C 252.823,132.323 252.656,124.323 251.5,116.5C 251.5,113.167 251.5,109.833 251.5,106.5 Z"/></g>
<g><path style="opacity:1" fill="#406905" d="M 238.5,51.5 C 243.144,58.1061 247.311,65.1061 251,72.5C 252.748,80.9294 255.248,88.9294 258.5,96.5C 260.091,109.288 261.091,122.121 261.5,135C 261.333,140.5 261.167,146 261,151.5C 258.869,158.34 257.702,165.34 257.5,172.5C 256.732,173.263 256.232,174.263 256,175.5C 255.501,171.179 255.334,166.846 255.5,162.5C 256.429,159.325 257.262,155.991 258,152.5C 259.008,136.093 258.341,119.76 256,103.5C 254.915,97.1466 252.915,91.1466 250,85.5C 249.503,82.854 249.336,80.1873 249.5,77.5C 248.495,74.2791 247.661,70.9457 247,67.5C 242.571,62.9332 239.738,57.5999 238.5,51.5 Z"/></g>
<g><path style="opacity:1" fill="#122705" d="M 74.5,115.5 C 74.0212,126.293 74.8545,136.959 77,147.5C 78.5122,146.743 79.8455,145.743 81,144.5C 82.7264,138.063 85.2264,132.063 88.5,126.5C 89.9778,126.238 91.3112,126.571 92.5,127.5C 91.4937,128.396 91.4937,129.062 92.5,129.5C 96.4193,126.696 100.586,124.363 105,122.5C 105.309,123.766 105.809,124.933 106.5,126C 110.833,126.333 115.167,126.667 119.5,127C 123.636,129.381 127.302,132.214 130.5,135.5C 131.955,137.746 133.788,139.746 136,141.5C 136.414,141.043 136.914,140.709 137.5,140.5C 139.477,142.642 141.144,144.976 142.5,147.5C 140.637,149.412 138.637,150.079 136.5,149.5C 129.239,143.859 121.573,138.693 113.5,134C 109.84,133.453 106.173,132.953 102.5,132.5C 100.307,132.326 98.4733,132.993 97,134.5C 96.6667,134.167 96.3333,133.833 96,133.5C 95.0617,136.598 93.2284,138.931 90.5,140.5C 87.2345,141.256 85.9012,143.089 86.5,146C 84.9512,147.214 83.7845,148.714 83,150.5C 77.9154,154.634 75.0821,153.301 74.5,146.5C 73.7795,140.854 73.4461,135.187 73.5,129.5C 73.1805,124.637 73.5139,119.97 74.5,115.5 Z"/></g>
<g><path style="opacity:1" fill="#070f04" d="M 207.5,120.5 C 206.761,120.369 206.094,120.536 205.5,121C 206.245,123.405 205.578,125.572 203.5,127.5C 196.932,132.941 189.932,137.608 182.5,141.5C 180.296,139.167 177.796,138.834 175,140.5C 170.922,138.546 166.756,136.713 162.5,135C 160.209,131.258 157.876,127.758 155.5,124.5C 155.5,123.167 155.5,121.833 155.5,120.5C 156.5,120.5 157.5,120.5 158.5,120.5C 158.5,119.167 158.5,117.833 158.5,116.5C 161.05,116.439 162.55,115.106 163,112.5C 163.175,116.766 164.175,120.766 166,124.5C 166.519,123.484 167.353,122.818 168.5,122.5C 170.453,123.156 172.453,123.489 174.5,123.5C 175.5,128.833 176.5,128.833 177.5,123.5C 181.131,124.412 184.797,124.579 188.5,124C 191.463,122.039 194.129,119.706 196.5,117C 195.426,116.261 194.759,115.261 194.5,114C 197.15,111.762 196.817,109.929 193.5,108.5C 195.208,103.725 196.041,98.7255 196,93.5C 196.333,98.1667 196.667,102.833 197,107.5C 198.903,109.441 199.736,111.774 199.5,114.5C 200.552,114.649 201.552,114.483 202.5,114C 204.125,113.147 204.458,112.147 203.5,111C 204.635,110.251 205.635,110.417 206.5,111.5C 206.29,114.748 206.623,117.748 207.5,120.5 Z"/></g>
<g><path style="opacity:1" fill="#548e01" d="M 258.5,96.5 C 262.523,116.535 263.523,136.868 261.5,157.5C 260.951,164.109 259.618,170.442 257.5,176.5C 257.5,175.167 257.5,173.833 257.5,172.5C 257.702,165.34 258.869,158.34 261,151.5C 261.167,146 261.333,140.5 261.5,135C 261.091,122.121 260.091,109.288 258.5,96.5 Z"/></g>
<g><path style="opacity:1" fill="#385d03" d="M 81.5,69.5 C 77.5484,84.0289 74.0484,98.6956 71,113.5C 70.3333,123.5 70.3333,133.5 71,143.5C 71.1909,145.708 71.6909,147.708 72.5,149.5C 73.1667,151.833 73.8333,154.167 74.5,156.5C 74.5,156.833 74.5,157.167 74.5,157.5C 72.6099,154.729 70.9433,151.729 69.5,148.5C 68.329,133.992 68.329,119.326 69.5,104.5C 68.7412,98.4773 70.0746,93.144 73.5,88.5C 75.2907,84.0307 76.7907,79.364 78,74.5C 78.6972,72.4156 79.8639,70.7489 81.5,69.5 Z"/></g>
<g><path style="opacity:1" fill="#254002" d="M 244.5,68.5 C 245.983,71.6276 247.649,74.6276 249.5,77.5C 249.336,80.1873 249.503,82.854 250,85.5C 252.915,91.1466 254.915,97.1466 256,103.5C 258.341,119.76 259.008,136.093 258,152.5C 257.262,155.991 256.429,159.325 255.5,162.5C 253.833,162.5 252.167,162.5 250.5,162.5C 252.972,161.358 253.972,159.358 253.5,156.5C 255.052,148.806 255.719,140.973 255.5,133C 255.333,127.167 255.167,121.333 255,115.5C 254.722,114.584 254.222,113.918 253.5,113.5C 253.666,108.821 253.499,104.155 253,99.5C 249.739,89.2411 246.906,78.9078 244.5,68.5 Z"/></g>
<g><path style="opacity:1" fill="#75b51f" d="M 66.5,98.5 C 67.3764,98.3691 68.0431,98.7025 68.5,99.5C 67.5934,102.421 67.2601,105.421 67.5,108.5C 65.6684,123.418 65.0018,138.418 65.5,153.5C 65.5,159.5 65.5,165.5 65.5,171.5C 61.285,147.206 61.6183,122.873 66.5,98.5 Z"/></g>
<g><path style="opacity:1" fill="#092202" d="M 253.5,113.5 C 254.222,113.918 254.722,114.584 255,115.5C 255.167,121.333 255.333,127.167 255.5,133C 255.719,140.973 255.052,148.806 253.5,156.5C 253.167,156.5 252.833,156.5 252.5,156.5C 251.448,157.53 250.114,158.197 248.5,158.5C 242.015,157.171 235.681,155.338 229.5,153C 224.177,152.501 218.844,152.334 213.5,152.5C 213.5,153.5 213.5,154.5 213.5,155.5C 210.813,155.336 208.146,155.503 205.5,156C 198.459,158.235 191.459,160.402 184.5,162.5C 178.857,162.443 173.19,161.443 167.5,159.5C 166.228,159.57 165.062,159.903 164,160.5C 159.049,157.548 153.882,155.048 148.5,153C 148.833,152.667 149.167,152.333 149.5,152C 146.232,151.89 143.899,150.39 142.5,147.5C 144.094,147.92 145.594,148.586 147,149.5C 148,148.833 149,148.167 150,147.5C 154.329,148.231 158.495,150.064 162.5,153C 169.256,154.607 176.09,155.774 183,156.5C 191.291,153.184 199.457,149.684 207.5,146C 213.545,145.991 219.378,145.158 225,143.5C 231.529,144.858 236.696,148.358 240.5,154C 243.053,154.761 245.553,155.594 248,156.5C 251.505,155.497 253.005,153.163 252.5,149.5C 253.495,137.678 253.828,125.678 253.5,113.5 Z"/></g>
<g><path style="opacity:1" fill="#081d04" d="M 137.5,128.5 C 138.458,128.953 139.292,129.619 140,130.5C 140.161,135.034 142.161,138.367 146,140.5C 147.332,144.49 149.998,145.157 154,142.5C 155.719,144.557 157.719,146.224 160,147.5C 161.333,146.833 162.667,146.167 164,145.5C 169.447,146.865 174.947,148.199 180.5,149.5C 183.212,147.74 186.212,147.073 189.5,147.5C 189.275,145.284 190.108,143.617 192,142.5C 192.333,143.167 192.667,143.833 193,144.5C 197.927,141.622 202.76,138.622 207.5,135.5C 211.854,134.229 216.187,134.229 220.5,135.5C 222.949,135.02 225.115,134.02 227,132.5C 227.471,134.246 228.138,135.913 229,137.5C 229.667,136.833 230.333,136.167 231,135.5C 237.039,140.06 242.539,145.226 247.5,151C 249.495,151.613 251.162,151.113 252.5,149.5C 253.005,153.163 251.505,155.497 248,156.5C 245.553,155.594 243.053,154.761 240.5,154C 236.696,148.358 231.529,144.858 225,143.5C 219.378,145.158 213.545,145.991 207.5,146C 199.457,149.684 191.291,153.184 183,156.5C 176.09,155.774 169.256,154.607 162.5,153C 158.495,150.064 154.329,148.231 150,147.5C 149,148.167 148,148.833 147,149.5C 145.594,148.586 144.094,147.92 142.5,147.5C 141.144,144.976 139.477,142.642 137.5,140.5C 136.914,140.709 136.414,141.043 136,141.5C 133.788,139.746 131.955,137.746 130.5,135.5C 130.539,134.417 130.873,133.417 131.5,132.5C 130.975,131.808 130.308,131.308 129.5,131C 132.26,130.326 134.927,129.493 137.5,128.5 Z"/></g>
<g><path style="opacity:1" fill="#49860d" d="M 69.5,104.5 C 68.329,119.326 68.329,133.992 69.5,148.5C 69.5467,151.568 70.0467,154.568 71,157.5C 73.277,158.117 75.4437,158.784 77.5,159.5C 76.1667,159.5 74.8333,159.5 73.5,159.5C 72.6773,162.977 72.1773,166.644 72,170.5C 70.7271,166.642 69.7271,162.642 69,158.5C 68.6174,157.944 68.1174,157.611 67.5,157.5C 67.0113,156.005 66.3446,154.671 65.5,153.5C 65.0018,138.418 65.6684,123.418 67.5,108.5C 68.1667,107.167 68.8333,105.833 69.5,104.5 Z"/></g>
<g><path style="opacity:1" fill="#072803" d="M 142.5,147.5 C 143.899,150.39 146.232,151.89 149.5,152C 149.167,152.333 148.833,152.667 148.5,153C 153.882,155.048 159.049,157.548 164,160.5C 165.062,159.903 166.228,159.57 167.5,159.5C 173.19,161.443 178.857,162.443 184.5,162.5C 191.459,160.402 198.459,158.235 205.5,156C 208.146,155.503 210.813,155.336 213.5,155.5C 213.5,154.5 213.5,153.5 213.5,152.5C 218.844,152.334 224.177,152.501 229.5,153C 235.681,155.338 242.015,157.171 248.5,158.5C 250.114,158.197 251.448,157.53 252.5,156.5C 252.923,159.243 251.756,160.576 249,160.5C 241.789,159.107 234.622,158.44 227.5,158.5C 223.705,158.819 220.205,159.819 217,161.5C 216.333,160.833 215.667,160.167 215,159.5C 211.781,160.793 208.781,162.46 206,164.5C 203.758,163.825 201.591,164.325 199.5,166C 192.762,166.284 186.095,167.117 179.5,168.5C 171.763,167.989 164.43,166.156 157.5,163C 152.446,159.806 147.112,157.139 141.5,155C 140.238,152.724 138.571,150.891 136.5,149.5C 138.637,150.079 140.637,149.412 142.5,147.5 Z"/></g>
<g><path style="opacity:1" fill="#05fd05" d="M 73.5,159.5 C 74.8333,159.5 76.1667,159.5 77.5,159.5C 79.8333,160.167 82.1667,160.833 84.5,161.5C 93.2421,164.755 101.909,168.422 110.5,172.5C 111.585,174.587 113.251,175.92 115.5,176.5C 118.5,180.167 121.833,183.5 125.5,186.5C 129.903,193.507 134.403,200.507 139,207.5C 140.219,211.394 141.886,215.061 144,218.5C 146.462,225.016 148.295,231.683 149.5,238.5C 149.5,240.167 149.5,241.833 149.5,243.5C 138.107,243.921 127.107,242.088 116.5,238C 109.373,232.541 102.539,226.708 96,220.5C 91.8153,214.776 87.6487,209.109 83.5,203.5C 81.3103,196.77 78.8103,190.103 76,183.5C 74.6351,175.547 73.8018,167.547 73.5,159.5 Z"/></g>
<g><path style="opacity:1" fill="#169b0d" d="M 84.5,161.5 C 89.0908,162.638 93.7575,163.471 98.5,164C 100.879,164.716 102.879,165.883 104.5,167.5C 106.869,168.69 108.869,170.357 110.5,172.5C 101.909,168.422 93.2421,164.755 84.5,161.5 Z"/></g>
<g><path style="opacity:1" fill="#0a2e03" d="M 136.5,149.5 C 138.571,150.891 140.238,152.724 141.5,155C 147.112,157.139 152.446,159.806 157.5,163C 164.43,166.156 171.763,167.989 179.5,168.5C 186.095,167.117 192.762,166.284 199.5,166C 201.591,164.325 203.758,163.825 206,164.5C 208.781,162.46 211.781,160.793 215,159.5C 215.667,160.167 216.333,160.833 217,161.5C 220.205,159.819 223.705,158.819 227.5,158.5C 234.622,158.44 241.789,159.107 249,160.5C 251.756,160.576 252.923,159.243 252.5,156.5C 252.833,156.5 253.167,156.5 253.5,156.5C 253.972,159.358 252.972,161.358 250.5,162.5C 249.5,162.5 248.5,162.5 247.5,162.5C 237.635,159.701 227.968,160.201 218.5,164C 203.928,171.89 188.261,175.223 171.5,174C 169.871,173.415 168.371,172.581 167,171.5C 166.055,171.905 165.388,172.572 165,173.5C 162.457,171.646 159.624,170.479 156.5,170C 151.894,165.567 146.561,162.234 140.5,160C 138.333,157.833 136.167,155.667 134,153.5C 132.951,154.517 131.784,154.684 130.5,154C 122.076,143.845 111.076,139.512 97.5,141C 94.656,144.279 92.3226,144.112 90.5,140.5C 93.2284,138.931 95.0617,136.598 96,133.5C 96.3333,133.833 96.6667,134.167 97,134.5C 98.4733,132.993 100.307,132.326 102.5,132.5C 106.173,132.953 109.84,133.453 113.5,134C 121.573,138.693 129.239,143.859 136.5,149.5 Z"/></g>
<g><path style="opacity:1" fill="#04fc05" d="M 228.5,224.5 C 214.655,239.008 197.655,245.674 177.5,244.5C 178.093,239.728 179.093,235.061 180.5,230.5C 184.305,217.89 189.972,206.223 197.5,195.5C 204.673,187.161 212.673,179.661 221.5,173C 224.327,171.336 227.327,170.17 230.5,169.5C 235.765,168.003 240.765,166.336 245.5,164.5C 245.833,164.5 246.167,164.5 246.5,164.5C 249.041,163.351 251.541,163.351 254,164.5C 253.52,171.077 252.854,177.743 252,184.5C 246.87,199.35 239.037,212.684 228.5,224.5 Z"/></g>
<g><path style="opacity:1" fill="#0a3f02" d="M 246.5,163.5 C 246.5,163.833 246.5,164.167 246.5,164.5C 246.167,164.5 245.833,164.5 245.5,164.5C 244.167,164.5 242.833,164.5 241.5,164.5C 238.781,164.397 236.115,164.731 233.5,165.5C 227.77,168.188 222.103,170.855 216.5,173.5C 212.078,175.406 207.744,177.572 203.5,180C 199.105,184.685 194.271,188.851 189,192.5C 188.667,192.167 188.333,191.833 188,191.5C 184.533,199.4 178.7,201.9 170.5,199C 159.287,191.711 147.954,184.378 136.5,177C 136.833,176.667 137.167,176.333 137.5,176C 133.973,174.968 131.639,172.802 130.5,169.5C 124.317,167.405 118.651,164.238 113.5,160C 107.279,157.059 100.945,155.559 94.5,155.5C 89.214,156.604 83.8806,157.27 78.5,157.5C 77.1667,157.5 75.8333,157.5 74.5,157.5C 74.5,157.167 74.5,156.833 74.5,156.5C 76.8568,156.663 79.1902,156.497 81.5,156C 87.7673,152.95 93.9339,149.783 100,146.5C 102.055,146.152 104.055,146.819 106,148.5C 107.938,147.14 109.604,147.473 111,149.5C 111.414,149.043 111.914,148.709 112.5,148.5C 115.619,151.393 119.286,153.226 123.5,154C 129.847,159.09 136.18,164.09 142.5,169C 147.384,170.37 151.717,172.703 155.5,176C 159.981,177.954 164.648,179.287 169.5,180C 169.167,180.333 168.833,180.667 168.5,181C 169.5,181.5 170.5,182 171.5,182.5C 174.5,181.167 177.5,181.167 180.5,182.5C 182.382,181.907 184.215,181.24 186,180.5C 186.667,181.167 187.333,181.833 188,182.5C 190.66,181.166 193.494,180.332 196.5,180C 202.228,175.902 208.228,172.068 214.5,168.5C 215.803,169.718 216.803,169.385 217.5,167.5C 222.526,166.439 227.693,164.773 233,162.5C 237.401,163.467 241.901,163.8 246.5,163.5 Z"/></g>
<g><path style="opacity:1" fill="#10c011" d="M 241.5,164.5 C 242.833,164.5 244.167,164.5 245.5,164.5C 240.765,166.336 235.765,168.003 230.5,169.5C 233.926,167.249 237.592,165.583 241.5,164.5 Z"/></g>
<g><path style="opacity:1" fill="#0a3403" d="M 73.5,129.5 C 73.4461,135.187 73.7795,140.854 74.5,146.5C 75.0821,153.301 77.9154,154.634 83,150.5C 83.7845,148.714 84.9512,147.214 86.5,146C 85.9012,143.089 87.2345,141.256 90.5,140.5C 92.3226,144.112 94.656,144.279 97.5,141C 111.076,139.512 122.076,143.845 130.5,154C 131.784,154.684 132.951,154.517 134,153.5C 136.167,155.667 138.333,157.833 140.5,160C 146.561,162.234 151.894,165.567 156.5,170C 159.624,170.479 162.457,171.646 165,173.5C 165.388,172.572 166.055,171.905 167,171.5C 168.371,172.581 169.871,173.415 171.5,174C 188.261,175.223 203.928,171.89 218.5,164C 227.968,160.201 237.635,159.701 247.5,162.5C 247.5,163.167 247.167,163.5 246.5,163.5C 241.901,163.8 237.401,163.467 233,162.5C 227.693,164.773 222.526,166.439 217.5,167.5C 216.803,169.385 215.803,169.718 214.5,168.5C 208.228,172.068 202.228,175.902 196.5,180C 193.494,180.332 190.66,181.166 188,182.5C 187.333,181.833 186.667,181.167 186,180.5C 184.215,181.24 182.382,181.907 180.5,182.5C 177.5,181.167 174.5,181.167 171.5,182.5C 170.5,182 169.5,181.5 168.5,181C 168.833,180.667 169.167,180.333 169.5,180C 164.648,179.287 159.981,177.954 155.5,176C 151.717,172.703 147.384,170.37 142.5,169C 136.18,164.09 129.847,159.09 123.5,154C 119.286,153.226 115.619,151.393 112.5,148.5C 111.914,148.709 111.414,149.043 111,149.5C 109.604,147.473 107.938,147.14 106,148.5C 104.055,146.819 102.055,146.152 100,146.5C 93.9339,149.783 87.7673,152.95 81.5,156C 79.1902,156.497 76.8568,156.663 74.5,156.5C 73.8333,154.167 73.1667,151.833 72.5,149.5C 72.176,142.646 72.5093,135.979 73.5,129.5 Z"/></g>
<g><path style="opacity:1" fill="#1caa15" d="M 115.5,176.5 C 119.833,178.833 123.167,182.167 125.5,186.5C 121.833,183.5 118.5,180.167 115.5,176.5 Z"/></g>
<g><path style="opacity:1" fill="#0a4702" d="M 216.5,173.5 C 214.216,176.612 211.216,178.778 207.5,180C 206.748,180.671 206.414,181.504 206.5,182.5C 204.692,182.491 203.025,182.991 201.5,184C 197.345,188.321 193.012,192.488 188.5,196.5C 185.007,200.809 181.507,205.143 178,209.5C 176.667,210.167 175.333,210.833 174,211.5C 173.994,214.275 172.827,216.275 170.5,217.5C 169,217.547 168,216.881 167.5,215.5C 168.64,213.922 169.14,212.256 169,210.5C 167.133,210.165 164.966,209.665 162.5,209C 160.632,205.958 158.965,202.792 157.5,199.5C 146.725,192.263 137.391,183.43 129.5,173C 121.506,168.343 113.506,163.676 105.5,159C 99.2988,157.787 92.9655,157.621 86.5,158.5C 83.6146,158.806 80.9479,158.473 78.5,157.5C 83.8806,157.27 89.214,156.604 94.5,155.5C 100.945,155.559 107.279,157.059 113.5,160C 118.651,164.238 124.317,167.405 130.5,169.5C 131.639,172.802 133.973,174.968 137.5,176C 137.167,176.333 136.833,176.667 136.5,177C 147.954,184.378 159.287,191.711 170.5,199C 178.7,201.9 184.533,199.4 188,191.5C 188.333,191.833 188.667,192.167 189,192.5C 194.271,188.851 199.105,184.685 203.5,180C 207.744,177.572 212.078,175.406 216.5,173.5 Z"/></g>
<g><path style="opacity:1" fill="#065e02" d="M 241.5,164.5 C 237.592,165.583 233.926,167.249 230.5,169.5C 227.327,170.17 224.327,171.336 221.5,173C 212.673,179.661 204.673,187.161 197.5,195.5C 197.67,194.178 197.337,193.011 196.5,192C 199.287,190.127 201.954,188.294 204.5,186.5C 204.527,184.801 205.194,183.467 206.5,182.5C 206.414,181.504 206.748,180.671 207.5,180C 211.216,178.778 214.216,176.612 216.5,173.5C 222.103,170.855 227.77,168.188 233.5,165.5C 236.115,164.731 238.781,164.397 241.5,164.5 Z"/></g>
<g><path style="opacity:1" fill="#0b4e02" d="M 86.5,158.5 C 92.9655,157.621 99.2988,157.787 105.5,159C 113.506,163.676 121.506,168.343 129.5,173C 137.391,183.43 146.725,192.263 157.5,199.5C 158.965,202.792 160.632,205.958 162.5,209C 164.966,209.665 167.133,210.165 169,210.5C 169.14,212.256 168.64,213.922 167.5,215.5C 168,216.881 169,217.547 170.5,217.5C 172.827,216.275 173.994,214.275 174,211.5C 175.333,210.833 176.667,210.167 178,209.5C 181.507,205.143 185.007,200.809 188.5,196.5C 193.012,192.488 197.345,188.321 201.5,184C 203.025,182.991 204.692,182.491 206.5,182.5C 205.194,183.467 204.527,184.801 204.5,186.5C 201.954,188.294 199.287,190.127 196.5,192C 197.337,193.011 197.67,194.178 197.5,195.5C 196.127,195.343 194.793,195.51 193.5,196C 192,198.833 189.833,201 187,202.5C 186.333,205.167 185.667,207.833 185,210.5C 183.579,213.009 181.912,215.343 180,217.5C 177.744,226.885 175.911,236.218 174.5,245.5C 173.085,242.124 171.751,238.624 170.5,235C 170.833,234.667 171.167,234.333 171.5,234C 171.105,231.219 169.772,229.053 167.5,227.5C 166.811,225.556 166.311,223.556 166,221.5C 165.667,222.833 165.333,224.167 165,225.5C 164.309,223.109 163.309,223.109 162,225.5C 160.323,230.847 158.657,236.181 157,241.5C 155.385,242.386 153.885,243.386 152.5,244.5C 151.943,240.366 152.943,236.699 155.5,233.5C 153.729,217.501 147.562,202.501 137,188.5C 130.524,182.355 124.357,175.855 118.5,169C 109.249,161.513 98.5822,158.013 86.5,158.5 Z"/></g>
<g><path style="opacity:1" fill="#389822" d="M 247.5,162.5 C 248.5,162.5 249.5,162.5 250.5,162.5C 252.167,162.5 253.833,162.5 255.5,162.5C 255.334,166.846 255.501,171.179 256,175.5C 256.232,174.263 256.732,173.263 257.5,172.5C 257.5,173.833 257.5,175.167 257.5,176.5C 254.26,187.398 250.093,198.065 245,208.5C 244.661,211.036 244.161,213.536 243.5,216C 241.392,219.551 239.392,223.051 237.5,226.5C 236.542,226.953 235.708,227.619 235,228.5C 233.47,232.995 231.303,236.995 228.5,240.5C 229.017,236.778 229.85,233.112 231,229.5C 233.845,226.132 235.845,222.466 237,218.5C 232.587,222.408 228.753,226.741 225.5,231.5C 223.15,232.861 220.816,234.194 218.5,235.5C 222.537,232.463 225.871,228.797 228.5,224.5C 239.037,212.684 246.87,199.35 252,184.5C 252.854,177.743 253.52,171.077 254,164.5C 251.541,163.351 249.041,163.351 246.5,164.5C 246.5,164.167 246.5,163.833 246.5,163.5C 247.167,163.5 247.5,163.167 247.5,162.5 Z"/></g>
<g><path style="opacity:1" fill="#43b624" d="M 67.5,157.5 C 68.1174,157.611 68.6174,157.944 69,158.5C 69.7271,162.642 70.7271,166.642 72,170.5C 72.1773,166.644 72.6773,162.977 73.5,159.5C 73.8018,167.547 74.6351,175.547 76,183.5C 78.8103,190.103 81.3103,196.77 83.5,203.5C 83.3433,204.873 83.51,206.207 84,207.5C 85.9473,209.063 87.114,211.063 87.5,213.5C 88.7046,219.344 90.3713,225.011 92.5,230.5C 86.3,220.764 81.1333,210.431 77,199.5C 72.3478,185.853 69.1811,171.853 67.5,157.5 Z"/></g>
<g><path style="opacity:1" fill="#107704" d="M 104.5,167.5 C 107.864,166.789 110.197,167.956 111.5,171C 113.608,171.36 115.608,172.027 117.5,173C 127.234,182.41 135.068,193.243 141,205.5C 148.649,214.973 151.816,225.973 150.5,238.5C 150.167,238.5 149.833,238.5 149.5,238.5C 148.295,231.683 146.462,225.016 144,218.5C 141.886,215.061 140.219,211.394 139,207.5C 134.403,200.507 129.903,193.507 125.5,186.5C 123.167,182.167 119.833,178.833 115.5,176.5C 113.251,175.92 111.585,174.587 110.5,172.5C 108.869,170.357 106.869,168.69 104.5,167.5 Z"/></g>
<g><path style="opacity:1" fill="#0f5e03" d="M 69.5,148.5 C 70.9433,151.729 72.6099,154.729 74.5,157.5C 75.8333,157.5 77.1667,157.5 78.5,157.5C 80.9479,158.473 83.6146,158.806 86.5,158.5C 98.5822,158.013 109.249,161.513 118.5,169C 124.357,175.855 130.524,182.355 137,188.5C 147.562,202.501 153.729,217.501 155.5,233.5C 152.943,236.699 151.943,240.366 152.5,244.5C 152.167,244.5 151.833,244.5 151.5,244.5C 151.784,242.585 151.451,240.919 150.5,239.5C 150.5,239.167 150.5,238.833 150.5,238.5C 151.816,225.973 148.649,214.973 141,205.5C 135.068,193.243 127.234,182.41 117.5,173C 115.608,172.027 113.608,171.36 111.5,171C 110.197,167.956 107.864,166.789 104.5,167.5C 102.879,165.883 100.879,164.716 98.5,164C 93.7575,163.471 89.0908,162.638 84.5,161.5C 82.1667,160.833 79.8333,160.167 77.5,159.5C 75.4437,158.784 73.277,158.117 71,157.5C 70.0467,154.568 69.5467,151.568 69.5,148.5 Z"/></g>
<g><path style="opacity:1" fill="#11630a" d="M 197.5,195.5 C 189.972,206.223 184.305,217.89 180.5,230.5C 177.57,234.974 176.237,239.974 176.5,245.5C 183.841,245.666 191.174,245.5 198.5,245C 202.215,243.705 205.882,242.538 209.5,241.5C 201.624,246.087 192.957,248.087 183.5,247.5C 180.087,247.483 177.087,246.816 174.5,245.5C 175.911,236.218 177.744,226.885 180,217.5C 181.912,215.343 183.579,213.009 185,210.5C 185.667,207.833 186.333,205.167 187,202.5C 189.833,201 192,198.833 193.5,196C 194.793,195.51 196.127,195.343 197.5,195.5 Z"/></g>
<g><path style="opacity:1" fill="#49cd45" d="M 83.5,203.5 C 87.6487,209.109 91.8153,214.776 96,220.5C 102.539,226.708 109.373,232.541 116.5,238C 127.107,242.088 138.107,243.921 149.5,243.5C 149.5,241.833 149.5,240.167 149.5,238.5C 149.833,238.5 150.167,238.5 150.5,238.5C 150.5,238.833 150.5,239.167 150.5,239.5C 150.739,241.467 150.406,243.301 149.5,245C 141.433,245.482 133.433,244.982 125.5,243.5C 121.621,241.729 117.621,240.229 113.5,239C 110.29,236.283 106.956,233.783 103.5,231.5C 101.833,229.167 99.8333,227.167 97.5,225.5C 94.4762,221.152 91.1428,217.152 87.5,213.5C 87.114,211.063 85.9473,209.063 84,207.5C 83.51,206.207 83.3433,204.873 83.5,203.5 Z"/></g>
<g><path style="opacity:1" fill="#65cd12" d="M 65.5,153.5 C 66.3446,154.671 67.0113,156.005 67.5,157.5C 69.1811,171.853 72.3478,185.853 77,199.5C 81.1333,210.431 86.3,220.764 92.5,230.5C 94.7409,231.3 95.7409,232.966 95.5,235.5C 97.906,241.605 101.239,247.272 105.5,252.5C 105.333,252.833 105.167,253.167 105,253.5C 104.292,252.619 103.458,251.953 102.5,251.5C 83.2202,228.261 70.8869,201.594 65.5,171.5C 65.5,165.5 65.5,159.5 65.5,153.5 Z"/></g>
<g><path style="opacity:1" fill="#65c113" d="M 261.5,157.5 C 262.485,161.634 262.818,165.968 262.5,170.5C 258.868,193.739 250.535,215.072 237.5,234.5C 236.542,234.953 235.708,235.619 235,236.5C 234.833,236 234.667,235.5 234.5,235C 236.032,232.379 237.032,229.546 237.5,226.5C 239.392,223.051 241.392,219.551 243.5,216C 244.161,213.536 244.661,211.036 245,208.5C 250.093,198.065 254.26,187.398 257.5,176.5C 259.618,170.442 260.951,164.109 261.5,157.5 Z"/></g>
<g><path style="opacity:1" fill="#227104" d="M 97.5,225.5 C 99.8333,227.167 101.833,229.167 103.5,231.5C 102.965,235.067 103.465,238.734 105,242.5C 105.667,243.833 106.667,244.833 108,245.5C 109.496,250.817 111.663,255.817 114.5,260.5C 109.96,255.566 105.96,250.232 102.5,244.5C 102.063,239.292 100.23,234.625 97,230.5C 96.2204,228.613 96.3871,226.946 97.5,225.5 Z"/></g>
<g><path style="opacity:1" fill="#2d8b05" d="M 87.5,213.5 C 91.1428,217.152 94.4762,221.152 97.5,225.5C 96.3871,226.946 96.2204,228.613 97,230.5C 100.23,234.625 102.063,239.292 102.5,244.5C 100.283,242.381 98.95,239.714 98.5,236.5C 97.675,235.614 96.675,235.281 95.5,235.5C 95.7409,232.966 94.7409,231.3 92.5,230.5C 90.3713,225.011 88.7046,219.344 87.5,213.5 Z"/></g>
<g><path style="opacity:1" fill="#0a4203" d="M 174.5,245.5 C 177.087,246.816 180.087,247.483 183.5,247.5C 192.957,248.087 201.624,246.087 209.5,241.5C 211.167,240.833 212.833,240.167 214.5,239.5C 216.583,238.412 218.749,237.412 221,236.5C 221.424,242.991 219.09,248.324 214,252.5C 208.162,266.874 198.995,278.54 186.5,287.5C 185.833,287.5 185.167,287.5 184.5,287.5C 186.559,285.103 188.892,283.103 191.5,281.5C 194.688,278.632 197.855,275.632 201,272.5C 203.003,267.154 206.003,262.487 210,258.5C 211.59,253.698 213.923,249.364 217,245.5C 217.051,241.809 215.884,241.642 213.5,245C 206.452,247.179 199.452,249.512 192.5,252C 187.167,252.667 181.833,252.667 176.5,252C 172.979,250.595 169.312,249.762 165.5,249.5C 159.699,251.101 154.032,253.101 148.5,255.5C 142.932,255.472 137.265,254.972 131.5,254C 126.533,252.067 121.533,250.233 116.5,248.5C 115.833,248.833 115.167,249.167 114.5,249.5C 116.036,252.778 117.369,256.111 118.5,259.5C 116.926,259.063 115.759,258.063 115,256.5C 113.7,252.268 112.2,248.102 110.5,244C 110.833,243.5 111.167,243 111.5,242.5C 120.94,245.98 130.607,248.647 140.5,250.5C 144.368,248.895 148.368,247.895 152.5,247.5C 152.5,246.5 152.5,245.5 152.5,244.5C 153.885,243.386 155.385,242.386 157,241.5C 158.657,236.181 160.323,230.847 162,225.5C 163.309,223.109 164.309,223.109 165,225.5C 165.333,224.167 165.667,222.833 166,221.5C 166.311,223.556 166.811,225.556 167.5,227.5C 169.772,229.053 171.105,231.219 171.5,234C 171.167,234.333 170.833,234.667 170.5,235C 171.751,238.624 173.085,242.124 174.5,245.5 Z"/></g>
<g><path style="opacity:1" fill="#39c138" d="M 228.5,224.5 C 225.871,228.797 222.537,232.463 218.5,235.5C 216.833,236.5 215.5,237.833 214.5,239.5C 212.833,240.167 211.167,240.833 209.5,241.5C 205.882,242.538 202.215,243.705 198.5,245C 191.174,245.5 183.841,245.666 176.5,245.5C 176.237,239.974 177.57,234.974 180.5,230.5C 179.093,235.061 178.093,239.728 177.5,244.5C 197.655,245.674 214.655,239.008 228.5,224.5 Z"/></g>
<g><path style="opacity:1" fill="#388e32" d="M 150.5,239.5 C 151.451,240.919 151.784,242.585 151.5,244.5C 148.913,245.816 145.913,246.483 142.5,246.5C 136.465,246.865 130.798,245.865 125.5,243.5C 133.433,244.982 141.433,245.482 149.5,245C 150.406,243.301 150.739,241.467 150.5,239.5 Z"/></g>
<g><path style="opacity:1" fill="#0e5304" d="M 103.5,231.5 C 106.956,233.783 110.29,236.283 113.5,239C 117.621,240.229 121.621,241.729 125.5,243.5C 130.798,245.865 136.465,246.865 142.5,246.5C 145.913,246.483 148.913,245.816 151.5,244.5C 151.833,244.5 152.167,244.5 152.5,244.5C 152.5,245.5 152.5,246.5 152.5,247.5C 148.368,247.895 144.368,248.895 140.5,250.5C 130.607,248.647 120.94,245.98 111.5,242.5C 111.167,243 110.833,243.5 110.5,244C 112.2,248.102 113.7,252.268 115,256.5C 115.759,258.063 116.926,259.063 118.5,259.5C 120.975,260.687 121.975,262.687 121.5,265.5C 119.167,263.833 116.833,262.167 114.5,260.5C 111.663,255.817 109.496,250.817 108,245.5C 106.667,244.833 105.667,243.833 105,242.5C 103.465,238.734 102.965,235.067 103.5,231.5 Z"/></g>
<g><path style="opacity:1" fill="#286b05" d="M 228.5,240.5 C 223.717,245.463 219.884,251.13 217,257.5C 215.296,259.373 213.463,261.04 211.5,262.5C 214.526,256.293 218.026,250.293 222,244.5C 222.533,240.27 224.033,236.437 226.5,233C 226.43,232.235 226.097,231.735 225.5,231.5C 228.753,226.741 232.587,222.408 237,218.5C 235.845,222.466 233.845,226.132 231,229.5C 229.85,233.112 229.017,236.778 228.5,240.5 Z"/></g>
<g><path style="opacity:1" fill="#68b018" d="M 237.5,226.5 C 237.032,229.546 236.032,232.379 234.5,235C 234.667,235.5 234.833,236 235,236.5C 235.708,235.619 236.542,234.953 237.5,234.5C 228.367,249.967 217.701,264.301 205.5,277.5C 204.624,277.631 203.957,277.298 203.5,276.5C 204.18,275.14 204.847,273.807 205.5,272.5C 206.167,271.167 207.167,270.167 208.5,269.5C 216.877,261.101 223.544,251.434 228.5,240.5C 231.303,236.995 233.47,232.995 235,228.5C 235.708,227.619 236.542,226.953 237.5,226.5 Z"/></g>
<g><path style="opacity:1" fill="#083002" d="M 191.5,281.5 C 193.579,277.665 196.412,274.331 200,271.5C 202.398,266.008 205.232,261.008 208.5,256.5C 209.479,255.235 210.479,253.901 211.5,252.5C 210.5,252.167 209.5,251.833 208.5,251.5C 199.717,254.097 190.884,256.763 182,259.5C 181,259.167 180,258.833 179,258.5C 170.039,260.382 161.039,262.049 152,263.5C 143.627,263.637 135.794,261.804 128.5,258C 126.527,257.505 124.527,257.338 122.5,257.5C 123.746,263.324 126.079,268.657 129.5,273.5C 126.473,271.14 123.806,268.473 121.5,265.5C 121.975,262.687 120.975,260.687 118.5,259.5C 117.369,256.111 116.036,252.778 114.5,249.5C 115.167,249.167 115.833,248.833 116.5,248.5C 121.533,250.233 126.533,252.067 131.5,254C 137.265,254.972 142.932,255.472 148.5,255.5C 154.032,253.101 159.699,251.101 165.5,249.5C 169.312,249.762 172.979,250.595 176.5,252C 181.833,252.667 187.167,252.667 192.5,252C 199.452,249.512 206.452,247.179 213.5,245C 215.884,241.642 217.051,241.809 217,245.5C 213.923,249.364 211.59,253.698 210,258.5C 206.003,262.487 203.003,267.154 201,272.5C 197.855,275.632 194.688,278.632 191.5,281.5 Z"/></g>
<g><path style="opacity:1" fill="#4b9102" d="M 228.5,240.5 C 223.544,251.434 216.877,261.101 208.5,269.5C 209.758,267.313 210.758,264.98 211.5,262.5C 213.463,261.04 215.296,259.373 217,257.5C 219.884,251.13 223.717,245.463 228.5,240.5 Z"/></g>
<g><path style="opacity:1" fill="#062802" d="M 208.5,256.5 C 207.257,253.894 205.924,253.894 204.5,256.5C 202.851,256.925 201.017,256.925 199,256.5C 196.038,259.418 192.538,261.252 188.5,262C 176.485,265.137 164.318,267.637 152,269.5C 144.634,268.742 137.634,266.742 131,263.5C 128.4,264.182 127.567,265.515 128.5,267.5C 132.232,273.275 136.232,278.942 140.5,284.5C 135.827,281.827 132.161,278.161 129.5,273.5C 126.079,268.657 123.746,263.324 122.5,257.5C 124.527,257.338 126.527,257.505 128.5,258C 135.794,261.804 143.627,263.637 152,263.5C 161.039,262.049 170.039,260.382 179,258.5C 180,258.833 181,259.167 182,259.5C 190.884,256.763 199.717,254.097 208.5,251.5C 209.5,251.833 210.5,252.167 211.5,252.5C 210.479,253.901 209.479,255.235 208.5,256.5 Z"/></g>
<g><path style="opacity:1" fill="#031c01" d="M 193.5,275.5 C 193.53,274.503 193.03,273.836 192,273.5C 189.616,274.719 187.283,274.719 185,273.5C 183.076,273.783 181.409,275.116 180,277.5C 179.692,276.692 179.192,276.025 178.5,275.5C 174.293,277.236 169.96,278.569 165.5,279.5C 161.006,279.454 156.506,279.454 152,279.5C 147.866,277.567 143.533,276.233 139,275.5C 138.13,276.108 137.63,276.941 137.5,278C 139.057,280.294 140.723,282.461 142.5,284.5C 141.833,284.5 141.167,284.5 140.5,284.5C 136.232,278.942 132.232,273.275 128.5,267.5C 130.391,268.536 132.224,268.536 134,267.5C 137.646,269.74 141.479,271.573 145.5,273C 148.84,273.453 152.174,273.953 155.5,274.5C 161.781,273.272 168.114,272.439 174.5,272C 177.905,270.531 181.072,268.697 184,266.5C 185.587,267.727 186.921,267.394 188,265.5C 188.333,265.833 188.667,266.167 189,266.5C 193.766,265.95 198.099,264.283 202,261.5C 201.105,267.252 198.272,271.919 193.5,275.5 Z"/></g>
<g><path style="opacity:1" fill="#062202" d="M 208.5,256.5 C 205.232,261.008 202.398,266.008 200,271.5C 196.412,274.331 193.579,277.665 191.5,281.5C 188.892,283.103 186.559,285.103 184.5,287.5C 183.167,287.833 181.833,288.167 180.5,288.5C 185.452,284.882 189.785,280.548 193.5,275.5C 198.272,271.919 201.105,267.252 202,261.5C 198.099,264.283 193.766,265.95 189,266.5C 188.667,266.167 188.333,265.833 188,265.5C 186.921,267.394 185.587,267.727 184,266.5C 181.072,268.697 177.905,270.531 174.5,272C 168.114,272.439 161.781,273.272 155.5,274.5C 152.174,273.953 148.84,273.453 145.5,273C 141.479,271.573 137.646,269.74 134,267.5C 132.224,268.536 130.391,268.536 128.5,267.5C 127.567,265.515 128.4,264.182 131,263.5C 137.634,266.742 144.634,268.742 152,269.5C 164.318,267.637 176.485,265.137 188.5,262C 192.538,261.252 196.038,259.418 199,256.5C 201.017,256.925 202.851,256.925 204.5,256.5C 205.924,253.894 207.257,253.894 208.5,256.5 Z"/></g>
<g><path style="opacity:1" fill="#65a918" d="M 95.5,235.5 C 96.675,235.281 97.675,235.614 98.5,236.5C 98.95,239.714 100.283,242.381 102.5,244.5C 105.96,250.232 109.96,255.566 114.5,260.5C 115.783,262.606 116.616,264.94 117,267.5C 122.051,273.095 127.218,278.595 132.5,284C 133.094,284.464 133.761,284.631 134.5,284.5C 138.522,287.334 142.522,290.001 146.5,292.5C 148.031,293.925 147.698,294.591 145.5,294.5C 131.751,287.19 120.251,277.19 111,264.5C 107.918,260.266 105.084,255.933 102.5,251.5C 103.458,251.953 104.292,252.619 105,253.5C 105.167,253.167 105.333,252.833 105.5,252.5C 101.239,247.272 97.906,241.605 95.5,235.5 Z"/></g>
<g><path style="opacity:1" fill="#255904" d="M 225.5,231.5 C 226.097,231.735 226.43,232.235 226.5,233C 224.033,236.437 222.533,240.27 222,244.5C 218.026,250.293 214.526,256.293 211.5,262.5C 210.758,264.98 209.758,267.313 208.5,269.5C 207.167,270.167 206.167,271.167 205.5,272.5C 200.959,277.03 196.292,281.53 191.5,286C 189.846,286.608 188.179,287.108 186.5,287.5C 198.995,278.54 208.162,266.874 214,252.5C 219.09,248.324 221.424,242.991 221,236.5C 218.749,237.412 216.583,238.412 214.5,239.5C 215.5,237.833 216.833,236.5 218.5,235.5C 220.816,234.194 223.15,232.861 225.5,231.5 Z"/></g>
<g><path style="opacity:1" fill="#021402" d="M 193.5,275.5 C 189.785,280.548 185.452,284.882 180.5,288.5C 167.802,291.648 155.469,290.648 143.5,285.5C 143.5,284.833 143.167,284.5 142.5,284.5C 140.723,282.461 139.057,280.294 137.5,278C 137.63,276.941 138.13,276.108 139,275.5C 143.533,276.233 147.866,277.567 152,279.5C 156.506,279.454 161.006,279.454 165.5,279.5C 169.96,278.569 174.293,277.236 178.5,275.5C 179.192,276.025 179.692,276.692 180,277.5C 181.409,275.116 183.076,273.783 185,273.5C 187.283,274.719 189.616,274.719 192,273.5C 193.03,273.836 193.53,274.503 193.5,275.5 Z"/></g>
<g><path style="opacity:1" fill="#3e7601" d="M 114.5,260.5 C 116.833,262.167 119.167,263.833 121.5,265.5C 122.949,269.472 125.449,272.806 129,275.5C 130.59,278.603 132.424,281.603 134.5,284.5C 133.761,284.631 133.094,284.464 132.5,284C 127.218,278.595 122.051,273.095 117,267.5C 116.616,264.94 115.783,262.606 114.5,260.5 Z"/></g>
<g><path style="opacity:1" fill="#1a3103" d="M 143.5,285.5 C 155.469,290.648 167.802,291.648 180.5,288.5C 180.389,289.117 180.056,289.617 179.5,290C 175.902,290.154 172.569,291.154 169.5,293C 159.259,295.414 150.592,292.914 143.5,285.5 Z"/></g>
<g><path style="opacity:1" fill="#345a02" d="M 121.5,265.5 C 123.806,268.473 126.473,271.14 129.5,273.5C 132.161,278.161 135.827,281.827 140.5,284.5C 141.167,284.5 141.833,284.5 142.5,284.5C 143.167,284.5 143.5,284.833 143.5,285.5C 150.592,292.914 159.259,295.414 169.5,293C 172.569,291.154 175.902,290.154 179.5,290C 180.056,289.617 180.389,289.117 180.5,288.5C 181.833,288.167 183.167,287.833 184.5,287.5C 185.167,287.5 185.833,287.5 186.5,287.5C 174.399,298.732 161.066,300.399 146.5,292.5C 142.522,290.001 138.522,287.334 134.5,284.5C 132.424,281.603 130.59,278.603 129,275.5C 125.449,272.806 122.949,269.472 121.5,265.5 Z"/></g>
<g><path style="opacity:1" fill="#68971c" d="M 205.5,272.5 C 204.847,273.807 204.18,275.14 203.5,276.5C 203.957,277.298 204.624,277.631 205.5,277.5C 196.206,287.156 185.206,294.323 172.5,299C 162.796,300.749 153.796,299.249 145.5,294.5C 147.698,294.591 148.031,293.925 146.5,292.5C 161.066,300.399 174.399,298.732 186.5,287.5C 188.179,287.108 189.846,286.608 191.5,286C 196.292,281.53 200.959,277.03 205.5,272.5 Z"/></g>
</svg>
