<svg xmlns="http://www.w3.org/2000/svg" viewBox="0 0 273.4 329"><title>msi logo symbol</title><path d="M646.82,403.36c-30.68-21.13-86.75-47.21-133.46-55.73a9.27,9.27,0,0,0-3.07,0C465,356,409.73,381.55,377,403.36a4.39,4.39,0,0,0-1.7,3.24c-.17,67.15,11.93,120,28.46,159.53,10.74,25.4,28.12,54.71,51.13,75.34a176.52,176.52,0,0,0,55.56,34.77,4.73,4.73,0,0,0,3.07,0,174.62,174.62,0,0,0,55.56-34.77c23.18-20.62,40.57-51.3,51.13-75.34C639,520.63,649,467.28,648.69,406.6a4.09,4.09,0,0,0-1.87-3.24" transform="translate(-375.3 -347.5)" style="fill:#a7a9ab"/><path d="M613.07,562.73c-7.67,17.73-24.37,50.62-49.09,72.61a168,168,0,0,1-50.79,32.55,2.16,2.16,0,0,1-1,.17,2.9,2.9,0,0,1-1.19-.17,174.25,174.25,0,0,1-50.79-32.38C440.75,618,423.37,592,410.92,562.73c-18.41-43.46-27.27-94.08-27.61-152.2a3,3,0,0,1,1.19-2.39c37.5-24.37,88.12-45.68,126.81-52.84h1a312.86,312.86,0,0,1,52.84,15.34,389.56,389.56,0,0,1,74.48,37.16,2.48,2.48,0,0,1,1.19,2.22c-.17,57.44-9.37,108.06-27.78,152.72" transform="translate(-375.3 -347.5)" style="fill:#e52629"/><path d="M559.21,420.07a26.46,26.46,0,0,1,3.58.68c1.36.85,1.36,2.73,2.22,4.26-5.28.85-7-2.9-9.54-5.8a26.65,26.65,0,0,1,3.75.85m-105,127.83a68.35,68.35,0,0,1-7.67-67.84c21-51.13,77.55-37.16,83-35.11a9.56,9.56,0,0,1,8-9.72,12,12,0,0,1,4.26-.17c.34,0,.68.34.34.34-5.45,1.36-9.54,4.26-9.37,9.37.17,4.77,5.11,8.18,9.2,9h0a8.11,8.11,0,0,0,5.62-.85h.17a5.76,5.76,0,0,1,2-1,8.73,8.73,0,0,1,5.11-.17,6.68,6.68,0,0,0,2.22.85c.51,0,1.36-.85,2-.85,3.24-.17,10.4,2.39,10.57,4.09.17,1.19-1.7,2.56-2.73,3.41a12.26,12.26,0,0,1-3.58,2c-.34.17-.17.17,0,.17,5.62-.68,15.85-4.43,14.32,2.56l-.51,1.53a.17.17,0,0,0,.17.17c5.62-1.87,7.33-6.82,6.48-13.46,0-.17-.17-.17-.17,0a7.27,7.27,0,0,1-1.87,2h0c0-1.87.17-4.6-1-6h-.17a5.66,5.66,0,0,1-3.75,6.31,54,54,0,0,0-6.82-9.54h-.17a10.49,10.49,0,0,1-.34,3.24s-.17.17-.17,0a5,5,0,0,0-4.26-3.24c-1.36-.17-2.73.17-4.26,0-2-.34-4.26-1.7-4.43-3.24-.17-2.39,4.26-3.58,6.48-4.09a18.13,18.13,0,0,1,1.53,4.26.17.17,0,0,0,.17.17,16.15,16.15,0,0,1,9.37-4.09c1,0,3.24.34,3.58,1,.85,1.7-1.19,3.58-1.87,4.26-1.19,1.19-.68,1-.51,1a23.45,23.45,0,0,0,8-5.28,13.19,13.19,0,0,1,1.7,8,.17.17,0,0,0,.17.17h.17c2.73-3.07,2.9-7.67,2.56-13a14.68,14.68,0,0,1,6.82,4.77c.17.17.34.17.17,0a19.63,19.63,0,0,0-6.31-6.65,16.18,16.18,0,0,1-2.9-1.7c-.68-.68-1.53-2.9-2.39-3.07-1.19-.17-2.56,1-3.92,1.19-2.39.17-3.58-1.53-4.09-3.75-5.8,1.7-8-1.87-9.2-6.14l-.51-2.56c-.51-1-2.73-2-3.92-2.56a11.78,11.78,0,0,0-5.45-.68,48.81,48.81,0,0,1-4.77,1.19,27.5,27.5,0,0,1-13.29-3.92,97.85,97.85,0,0,1-29-23.86c-.34-.34-.34,0-.34.17a63.16,63.16,0,0,0,25.91,29.49,91,91,0,0,1-34.43-17.21c-.17-.17-.51-.34-.17.17a87.23,87.23,0,0,0,15.85,15.85l.17.17c-8.52,3.41-21.13,4.77-31.36,7.16-.51.17-.51.34-.17.34a123.11,123.11,0,0,1,17.73,2.39h-.17c-23.18.85-43.29,7.67-57.27,20.62-.17.17,0,.34.17.17a82.46,82.46,0,0,1,10.23-3.75c-3.41,3.24-7,6.48-10.06,9.89h0c-4.6,5.11-6.65,4.77-8.86,1.19-1.7-1.87-1.7-7.84.68-9,2.9.85,4.77-1.53,4.43-4.26-.51-3.75-4.77-6.31-7.33-8-.34-.17-.51-.17-.34,0,1.36,1.36,3.24,2.73,3.58,4.77.17.85.17,2.39-.68,2.73-1.36.34-2-1-3.41-.85-1.19.17-1.7,2.22-1.87,3.58a26.67,26.67,0,0,0-.34,5.28c0,.85.34,2.22-.34,2.9-.85-.34-1-1.36-1.36-2.22a17.09,17.09,0,0,1-2.56-10.06c.51-.17,1.53,0,2-.34a8.31,8.31,0,0,0-2.9-5.8,9.66,9.66,0,0,0-8.69-2.39c-.17,0-.17.17,0,.17,2.22.34,6.31.85,6.48,2.9,0,.85-1,2-1.36,2.73a13.24,13.24,0,0,0,2.22,11.76c1.19,1.53,2.73,2.9,1.7,5.62a18.92,18.92,0,0,1-7.84-4.77c-.85-1.53-.85-3.24-2-4.43a11.3,11.3,0,0,0-12.78-2.9c-.17,0-.17.17,0,.17,3.58-.17,6.82.17,8.18,2.56a13.15,13.15,0,0,1,1.19,4.43c0,.68-.17,1.53.17,2,.51,1,2.39.85,3.41,1.36,1.36.85,2.22,2.9,3.75,4.26a9.45,9.45,0,0,0,1.36,1c2.39,1.36,7.33,2.56,9.2,4.43,2.9,2.9,1.36,7.84.34,11.08A32.54,32.54,0,0,0,429,482.62c0,.17.17.34.17.17a42.41,42.41,0,0,1,9.37-8,130.35,130.35,0,0,0-8.35,22.33c-1.87,7-4.77,18.58-.34,25.23,0,.17.17.17.17,0,.34-2.22.34-4.77,1.87-5.8a78.92,78.92,0,0,0,21.48,32c.85-.17,1-.34.85-.68" transform="translate(-375.3 -347.5)" style="fill:#fff"/><path d="M484.73,488.42c33.24,9.72,62-10.74,68-18.24,1-1.19.68-1.36-.34-.68a75.62,75.62,0,0,1-16.19,10.06c-24.2,11.93-49.77,5.62-50.45,4.09-.68-1.19,1.7-1,1.7-1,51.81-1.7,62-24.37,61.87-25.23,0-.85-.85.17-.85.17C535,475.12,500.07,477,500.07,477c-9.2.85-16.7-.68-21.31-4.94A13.23,13.23,0,0,1,476,468h-.17a19.13,19.13,0,0,1-2.73,3.75c-1.19,1.53-3.07,2.22-4.26,1.36-3.75-2.56,6.31-16.87,14.32-23.18.34-.34,1.53-1.36.85-1a60.83,60.83,0,0,0-35.45,41.08,62.85,62.85,0,0,0-2.22,16.87,73.16,73.16,0,0,0,2,17.21,98.15,98.15,0,0,0,9.89,25.74c.34.51.34.17.51.17a33.14,33.14,0,0,0,2.9-7.16,50.21,50.21,0,0,1,2.9-8.52c3.24-5.28,20.45-3.92,15.68-7.5a25.68,25.68,0,0,1-3.92-3.58,77.33,77.33,0,0,1-6.65-8.18,39.13,39.13,0,0,1-7.67-20.62c0-.34.17-.34.34,0a42.13,42.13,0,0,0,22,24.2,62.46,62.46,0,0,0,17.39,4.6c.51,0,.51-.17,0-.17-12.78-2.9-25.57-11.59-30.85-22,0,0-2.22-3.41-.85-4.09s3.58,2.22,5.8,4.26a42.21,42.21,0,0,0,16.19,9,56.77,56.77,0,0,0,27.78.68c.34,0,.34-.17,0-.17A59.4,59.4,0,0,1,496,508.53c-15.51-6-20.11-13.64-18.92-15,1.53-1.7,19.6,15.51,49.09,2.56A72,72,0,0,0,543,485.52c.34-.34.17-.68,0-.51-9.89,5.28-19.43,10.74-33.92,11.59a45.7,45.7,0,0,1-25.4-6.14c-1.19-.85-1.7-1.36-1.19-1.87.68-.85,2.22-.17,2.22-.17" transform="translate(-375.3 -347.5)" style="fill:#fff"/><path d="M601.82,538.52a7.65,7.65,0,0,1-5.11,1.19,16.43,16.43,0,0,0-4.09,0,.89.89,0,0,0-.68.34h0c-2.39,2.22-3.75,1.19-3.58-.34a13.67,13.67,0,0,1,.85-3.58,33.9,33.9,0,0,0,2.9-6.14,8.75,8.75,0,0,0-1-5.45c-.34-.85-1.53-4.09,2.56-3.92h0a1.94,1.94,0,0,0,1.36-.51,10.84,10.84,0,0,0,4.26-9.2c0-.17-.17-.34-.17-.17a8.45,8.45,0,0,1-3.92,3.41,25.66,25.66,0,0,0-3.75,1.87,3.57,3.57,0,0,0-.68,1c-1.19,2.9-2.56,1.7-2.73,1.36a11.75,11.75,0,0,0-3.75-3.92,26,26,0,0,0-15.17-3.07c-2.56.17-5.11.51-7.5.85a25.62,25.62,0,0,1-3.41.34c-4.77.17-1.53-5.28,2.39-6.31a8.76,8.76,0,0,1,8.35,1.87c.17.17.34.17.34,0-1.53-3.75-8-17-30.85-15.17-.34,0-.34.17-.17.34a49.13,49.13,0,0,1,13.64,4.43c1.36.68,4.09,2.73,3.41,5.62a16,16,0,0,1-5.8,6.82,7.7,7.7,0,0,1-6.14-.51,15.39,15.39,0,0,1-7.84-11.93s-.17-.34-.17,0a13.9,13.9,0,0,0,10.4,16.7,2.9,2.9,0,0,0,1.19.17c2.22.51,2,4.43,1.53,6.31-.51,2.22-3.92,2.39-6.48,2a14.64,14.64,0,0,1-6.48-2.73,33.19,33.19,0,0,1-7.67-8.52c-.34-.51-.51-.51-.34,0a26.27,26.27,0,0,0,9,11.59,25.31,25.31,0,0,0,17.39,5.11,48.11,48.11,0,0,0,11.93-2.56c.34-.17.34-.34,0-.34-5.28,0-11.93,0-13.29-3.58-.51-1.19-.85-6.31,1.87-6.14a51.44,51.44,0,0,0,11.42-.68,31.92,31.92,0,0,1,10.57,1.7,11.82,11.82,0,0,1,6.14,4.6c2.73,3.92,2,10.74,1,16.36a83.11,83.11,0,0,1-4.43,14c-3.58,9-10.91,22.84-16.7,28a64.8,64.8,0,0,1-25.74,11.93,56.93,56.93,0,0,1-13,2c-10.4.51-18.75-1-24.2-5.8a24.6,24.6,0,0,1-6-9c-1.7-8.35,2.9-10.74,14.15-7.33,3.58,1,5.8-2,8.52-2.22,1.36,0,2.39.85,3.58.51.85-.17,1.53-1.7,2.22-2.73a9.13,9.13,0,0,1,2.56-2.56c3.24-1.87,6.65.34,8.86,1.7.17.17.34,0,.34-.17a11.85,11.85,0,0,0-14-3.58c-1,.51-2,1.87-3.24,2.73a13.55,13.55,0,0,1-7.33.68,4.28,4.28,0,0,1-2.56-.34c.68-3.41,3.92-3.41,6.31-4.94a12.79,12.79,0,0,0,7-10.06,3.41,3.41,0,0,1,.34-2.22c.51-.68,1.7-.68,2.9-.51a20.86,20.86,0,0,1,4.6,1.53c.34.17-.51-.68-.85-1-4.43-3.58-12.61-1.87-14.49,2-.34.68,1.53.68,1.7,1.53s-1.19,2.22-1.87,2.9a25.21,25.21,0,0,1-5.28,4.26c-1,.68-1.87,1.7-3.07,1.7a19.88,19.88,0,0,1,2.9-5.28c.68-1.36,2.39-4.94,1.53-6.31-.68-.85-3.58-.34-3.92-1.53-.34-.85.34-1.87.85-2.39a12.76,12.76,0,0,1,6-2.73c.34,0,.17-.17-.17-.17-3.92.17-10.06,1.53-11.59,4.43a3.69,3.69,0,0,0,1.36,5.11,2.42,2.42,0,0,0,1,.34c.85,3.07-.85,8.35-4.77,8.86-5.28.68-9.2-2.9-7-12.1,0,0,0-.34-.17-.17l-.51.51c-.34.34-.51.68-.85.85-3.58,3.24-11.42,8.18-18.07,4.94a6.69,6.69,0,0,1-3.07-3.07c-3.24-7,4.09-11.93,9.54-10.91,2.39.34,4.43,2,4.09,4.6a3.71,3.71,0,0,1-3.92,2.73,5.81,5.81,0,0,1-3.24-1.19c-1-1-1.19-2-1.36-1.7-1.87,8.18,9.54,7.67,13.46,3.75a10.52,10.52,0,0,0,2-13.81,10,10,0,0,0-9.2-3.92,25,25,0,0,0-10.4,2.9c-3.07,2.39-3.75,7-4.6,10.91a21.12,21.12,0,0,1-4.94,10.4c0,.17,0,.17.17.17a5.94,5.94,0,0,1,4.77,1.7c2.56,2.39-1.87.51-4.77,2.22H459a21.55,21.55,0,0,0-9.89,16.87c0,.34.17.68.34.34a16.82,16.82,0,0,1,8.18-6,40.12,40.12,0,0,0,7.5-2.9,3.68,3.68,0,0,0,1.53-2.39h0c.51-2.22,2.73-2.56,2.56-.51-.17,3.07-2.39,5.45-1,9,1.36,3.75,5.28,5.45,8.69,7.67.68.51,2.56,2-2.73,3.75h-.34c-.17,0-.17.17-.34.17s-.17,0-.34.17a18.39,18.39,0,0,0-8.35,14.32c0,.34.17.51.17.34a14.18,14.18,0,0,1,7-5.11,40.69,40.69,0,0,0,6.31-2.56,2.79,2.79,0,0,0,1.19-1.87h0c1.53-4.26,2.9-2.39,3.07-1a10.76,10.76,0,0,0,1.36,3.92c1.7,2.73,5.8,2.39,9.72,3.07,1.36.17,2.9,1.36-.34,3.07h0a1.7,1.7,0,0,0-.85.68,17.59,17.59,0,0,0-4.77,15.34c0,.34.17.51.34.17a15,15,0,0,1,5.45-6.31,22.89,22.89,0,0,0,5.28-3.75,2.68,2.68,0,0,0,.68-2.22h0c-.17-4.09,2-3.41,2.73-2.39,1.19,1.87,2,3.92,4.43,4.77a10.84,10.84,0,0,0,6.14-.85,40.59,40.59,0,0,1,4.43-.85c2.56-.34,1.7,2,.34,3.75l-.17.17v.17h0c-.17.17-.17.34-.34.51a14.86,14.86,0,0,0,1,13.64c.17.34.34.34.34,0a10.59,10.59,0,0,1,2.39-6.65,21.66,21.66,0,0,0,3.07-4.6,1.87,1.87,0,0,0,0-1.36h0v-.34c-1.36-3.92.68-4.43,2.39-3.92a13.19,13.19,0,0,0,8.86,0,22.84,22.84,0,0,0,6.31-4.26,24.88,24.88,0,0,1,5.8-4.43c1.53-.51,2.39.34,2,3.07h0a2.8,2.8,0,0,0,.17,1.7,13.93,13.93,0,0,0,9.89,7.5c.34,0,.34,0,.17-.17a10.22,10.22,0,0,1-3.07-5.62,22,22,0,0,0-1.36-4.77c-.17-.17-.34-.51-.51-.68l-.17-.17h0c-.17-.17-.34-.17-.51-.34-2.73-1.53-1.7-3.58,1-4.26,5.62-1.19,11.93-2.56,14.83-6.31a20.51,20.51,0,0,0,2.9-8.18,54,54,0,0,1,2-7.5c.34-1,.68-3.92,5.11-.34h0a3.25,3.25,0,0,0,1.7.85A13.8,13.8,0,0,0,593,568c.17-.17.17-.34,0-.34a10,10,0,0,1-6.31-.34,25.87,25.87,0,0,0-4.77-1.53h-.68c-5.45,1-2.73-2.22-2.22-2.9,1.53-2.22,3.58-3.92,5.11-6.14a28.8,28.8,0,0,0,3.41-11.25c.17-.85.68-3.07,5.11-1.7.17.17.34.17.68.17h1a11,11,0,0,0,8-6.14c-.34.68-.34.68-.51.68" transform="translate(-375.3 -347.5)" style="fill:#fff"/></svg>