<svg version="1.2" xmlns="http://www.w3.org/2000/svg" viewBox="0 0 229 127" width="229" height="127">
	<title>nvidia</title>
	<style>
		.s0 { fill: #ffffff } 
		.s1 { fill: #76b900 } 
	</style>
	<g>
		<path fill-rule="evenodd" class="s0" d="m105.7 134.4v37.4h-10.5v-37.4c0 0 10.5 0 10.5 0zm-74.7-0.1c9.2 0 18.6 2 18.6 16.8v20.7h-10.3v-16.4c0-5.3-0.7-8.2-2.4-9.9-1.3-1.5-3.2-2.1-6-2.1h-8.2v28.4h-10.7v-37.5c0 0 19 0 19 0zm96 0.1c8.4 0 14.1 1 18 6.2 2.2 3 3.4 7.7 3.4 12.9 0 5.8-1.4 11-3.7 13.4-3.2 3.4-6.2 4.9-15.4 4.9h-17.1v-37.4zm-4.4 29.4h4.6c6.6 0 10.8-2.9 10.8-10.6 0-7.7-4.2-10.7-10.8-10.7h-4.6c0 0 0 21.3 0 21.3zm-31.9-29.4l-12.2 37.4h-15.2l-12.1-37.4h11.4l8.5 29.7 8.8-29.7c0 0 10.8 0 10.8 0zm62.6 0h10.6v37.4h-10.6zm43.8 0l14.8 37.4h-11.3l-2.2-6.6h-17.5l-2.3 6.6h-10.4l14.8-37.4c0 0 14.1 0 14.1 0zm-13.9 24.4h13l-6.4-17.5z"/>
		<path fill-rule="evenodd" class="s1" d="m175.5 17v99.6h-94.3v-11.7q0.8 0.1 1.5 0.1 0.8 0.1 1.5 0.1 0.8 0.1 1.6 0.1 0.7 0 1.5 0c21.8 0 60.3-11.1 76.9-25-2.5-2.4-14.3-8-17.1-10.4-17.4 15-35.4 27.7-60.2 27.7q-3 0-5.7-0.4v-8.3c2.1 0.4 4.4 0.7 6.9 0.7 26.6 0 52.2-31.2 52.2-31.2 0 0-22.3-29.2-56.5-28q-1.3 0-2.6 0.1v-13.4c0 0 94.3 0 94.3 0zm-94.3 29.7v-9q0.3 0 0.7 0 0.3 0 0.6-0.1 0.3 0 0.7 0 0.3 0 0.6 0c24.6-0.8 40.8 21.1 40.8 21.1 0 0-17.5 24.2-36.1 24.2-2.7 0-5.1-0.4-7.3-1.1v-27.3c9.6 1.1 11.5 5.4 17.2 15l12.8-10.8c0 0-9.3-12.3-25-12.3-1.8 0-3.4 0.1-5 0.3zm0 50.5v7.7c-41.4-3.9-56.1-46.6-56.1-46.6 0 0 26-25.5 56.1-27.9v7.3c-27.2 2.1-40.8 22.2-40.8 22.2 0 0 10.4 33.4 40.8 37.3zm-17.2-34.9c0 0 7.5-9 17.2-7.8q0 0 0 0v-7.8c-18.3 2-29.3 14.2-29.3 14.2 0 0 6.3 23.9 29.3 27.9v-7c-13-4.4-17.2-19.5-17.2-19.5z"/>
	</g>
</svg>