<svg xmlns="http://www.w3.org/2000/svg" height="800" width="1200" viewBox="-37.83195 -6.95675 327.8769 41.7405"><path fill="#DF1F36" d="M231.342 0h-5.368v27.827h5.566V8.746l15.305 19.081h5.368V0h-5.567v19.081zM44.327 27.825l6.175-.003 9.715-22.238v.001l.01-.02L64.599 15.7h-4.866l-.107.109.107-.11-4.768 4.77.08-.001 11.74.003 3.18 7.354h6.16L63.804 0h-7.156zM162.911 0h-22.869v27.824h20.662v-4.759h-15.139v-6.742h13.14v-4.857h-13.14V4.771h12.577zm38.614 27.819v-.003l.001.001 4.716-4.716V4.719L201.526.003l-.001.001V.002h-16.477v.002l-.001-.001-4.716 4.716v18.383l4.716 4.716.001-.001v.003h16.477zm-13.601-4.418l-2.599-2.599V7.018l2.599-2.598h10.727l2.599 2.598v13.785l-2.599 2.599h-10.727zM20.473 18.485l.001-.001-.003-.004 4.258-4.257V4.652L20.083.006 20.076 0H0v27.827h5.566v-9.143h8.546l6.559 9.143h6.559zm-2.981-4.572H5.566V4.771h11.922l2.189 2.189v4.778zM114.763 0H94.092v27.826h20.662l5.574-5.573V5.551zM99.657 23.057V4.77h12.521l2.584 2.584v13.119l-2.584 2.584z"/></svg>